%TF.GenerationSoftware,KiCad,Pcbnew,(6.0.10)*%
%TF.CreationDate,2023-08-09T22:59:08-05:00*%
%TF.ProjectId,MVS Pause Button,4d565320-5061-4757-9365-20427574746f,rev?*%
%TF.SameCoordinates,Original*%
%TF.FileFunction,Copper,L2,Bot*%
%TF.FilePolarity,Positive*%
%FSLAX46Y46*%
G04 Gerber Fmt 4.6, Leading zero omitted, Abs format (unit mm)*
G04 Created by KiCad (PCBNEW (6.0.10)) date 2023-08-09 22:59:08*
%MOMM*%
%LPD*%
G01*
G04 APERTURE LIST*
%TA.AperFunction,ComponentPad*%
%ADD10C,2.500000*%
%TD*%
%TA.AperFunction,ViaPad*%
%ADD11C,0.800000*%
%TD*%
%TA.AperFunction,Conductor*%
%ADD12C,0.250000*%
%TD*%
G04 APERTURE END LIST*
D10*
%TO.P,J2,1,Pin_1*%
%TO.N,GND*%
X122050000Y-42350000D03*
%TD*%
%TO.P,J4,1,Pin_1*%
%TO.N,DIP8*%
X114400000Y-42350000D03*
%TD*%
D11*
%TO.N,GND*%
X112200000Y-44150000D03*
%TO.N,INV_In*%
X117150000Y-46050000D03*
X112200000Y-45425500D03*
X108600000Y-46100000D03*
%TO.N,GND*%
X112200000Y-52950000D03*
X110325000Y-48850000D03*
X115100000Y-46800000D03*
%TO.N,/Feedback*%
X108375000Y-53230500D03*
X108550000Y-43750000D03*
%TD*%
D12*
%TO.N,/Feedback*%
X107875000Y-44425000D02*
X107875000Y-52730500D01*
X107875000Y-52730500D02*
X108375000Y-53230500D01*
X108550000Y-43750000D02*
X107875000Y-44425000D01*
%TO.N,INV_In*%
X117000000Y-45900000D02*
X117150000Y-46050000D01*
X111525500Y-46100000D02*
X108600000Y-46100000D01*
X112200000Y-45425500D02*
X111525500Y-46100000D01*
X112200000Y-45425500D02*
X112674500Y-45900000D01*
X112674500Y-45900000D02*
X117000000Y-45900000D01*
%TD*%
%TA.AperFunction,Conductor*%
%TO.N,GND*%
G36*
X112245732Y-46379838D02*
G01*
X112287953Y-46406044D01*
X112299179Y-46416586D01*
X112306128Y-46420406D01*
X112316932Y-46426346D01*
X112333456Y-46437199D01*
X112349459Y-46449613D01*
X112390043Y-46467176D01*
X112400673Y-46472383D01*
X112439440Y-46493695D01*
X112447117Y-46495666D01*
X112447122Y-46495668D01*
X112459058Y-46498732D01*
X112477766Y-46505137D01*
X112496355Y-46513181D01*
X112504180Y-46514420D01*
X112504182Y-46514421D01*
X112540019Y-46520097D01*
X112551640Y-46522504D01*
X112586789Y-46531528D01*
X112594470Y-46533500D01*
X112614731Y-46533500D01*
X112634440Y-46535051D01*
X112654443Y-46538219D01*
X112662335Y-46537473D01*
X112667562Y-46536979D01*
X112698454Y-46534059D01*
X112710311Y-46533500D01*
X115463514Y-46533500D01*
X115531635Y-46553502D01*
X115578128Y-46607158D01*
X115588232Y-46677432D01*
X115566727Y-46731771D01*
X115531035Y-46782745D01*
X115523277Y-46793824D01*
X115520954Y-46798806D01*
X115520951Y-46798811D01*
X115517517Y-46806176D01*
X115448700Y-46953755D01*
X115403028Y-47124207D01*
X115402549Y-47129687D01*
X115390987Y-47261839D01*
X115389969Y-47270224D01*
X115386309Y-47293724D01*
X115388771Y-47312552D01*
X115390436Y-47325283D01*
X115391500Y-47341621D01*
X115391500Y-53665500D01*
X115371498Y-53733621D01*
X115317842Y-53780114D01*
X115265500Y-53791500D01*
X109318390Y-53791500D01*
X109250269Y-53771498D01*
X109203776Y-53717842D01*
X109193672Y-53647568D01*
X109205105Y-53614504D01*
X109203539Y-53613807D01*
X109206223Y-53607779D01*
X109209527Y-53602056D01*
X109268542Y-53420428D01*
X109288504Y-53230500D01*
X109268542Y-53040572D01*
X109209527Y-52858944D01*
X109114040Y-52693556D01*
X109093199Y-52670409D01*
X108990675Y-52556545D01*
X108990674Y-52556544D01*
X108986253Y-52551634D01*
X108831752Y-52439382D01*
X108825724Y-52436698D01*
X108825722Y-52436697D01*
X108663319Y-52364391D01*
X108663318Y-52364391D01*
X108657288Y-52361706D01*
X108608303Y-52351294D01*
X108545830Y-52317566D01*
X108511508Y-52255416D01*
X108508500Y-52228047D01*
X108508500Y-47134500D01*
X108528502Y-47066379D01*
X108582158Y-47019886D01*
X108634500Y-47008500D01*
X108695487Y-47008500D01*
X108701939Y-47007128D01*
X108701944Y-47007128D01*
X108788887Y-46988647D01*
X108882288Y-46968794D01*
X108904140Y-46959065D01*
X109050722Y-46893803D01*
X109050724Y-46893802D01*
X109056752Y-46891118D01*
X109211253Y-46778866D01*
X109215668Y-46773963D01*
X109220580Y-46769540D01*
X109221705Y-46770789D01*
X109275014Y-46737949D01*
X109308200Y-46733500D01*
X111446733Y-46733500D01*
X111457916Y-46734027D01*
X111465409Y-46735702D01*
X111473335Y-46735453D01*
X111473336Y-46735453D01*
X111533486Y-46733562D01*
X111537445Y-46733500D01*
X111565356Y-46733500D01*
X111569291Y-46733003D01*
X111569356Y-46732995D01*
X111581193Y-46732062D01*
X111613451Y-46731048D01*
X111617470Y-46730922D01*
X111625389Y-46730673D01*
X111644843Y-46725021D01*
X111664200Y-46721013D01*
X111676430Y-46719468D01*
X111676431Y-46719468D01*
X111684297Y-46718474D01*
X111691668Y-46715555D01*
X111691670Y-46715555D01*
X111725412Y-46702196D01*
X111736642Y-46698351D01*
X111771483Y-46688229D01*
X111771484Y-46688229D01*
X111779093Y-46686018D01*
X111785912Y-46681985D01*
X111785917Y-46681983D01*
X111796528Y-46675707D01*
X111814276Y-46667012D01*
X111833117Y-46659552D01*
X111868887Y-46633564D01*
X111878807Y-46627048D01*
X111910035Y-46608580D01*
X111910038Y-46608578D01*
X111916862Y-46604542D01*
X111931183Y-46590221D01*
X111946217Y-46577380D01*
X111956193Y-46570132D01*
X111962607Y-46565472D01*
X111990793Y-46531401D01*
X111998782Y-46522622D01*
X112112605Y-46408799D01*
X112174917Y-46374773D01*
X112245732Y-46379838D01*
G37*
%TD.AperFunction*%
%TA.AperFunction,Conductor*%
G36*
X122072682Y-42809410D02*
G01*
X122077726Y-42808500D01*
X122990500Y-42808500D01*
X123058621Y-42828502D01*
X123105114Y-42882158D01*
X123116500Y-42934500D01*
X123116500Y-46165500D01*
X123096498Y-46233621D01*
X123042842Y-46280114D01*
X122990500Y-46291500D01*
X118178059Y-46291500D01*
X118109938Y-46271498D01*
X118063445Y-46217842D01*
X118052749Y-46152330D01*
X118062814Y-46056565D01*
X118063504Y-46050000D01*
X118043542Y-45860072D01*
X117984527Y-45678444D01*
X117889040Y-45513056D01*
X117841230Y-45459957D01*
X117765675Y-45376045D01*
X117765674Y-45376044D01*
X117761253Y-45371134D01*
X117606752Y-45258882D01*
X117600724Y-45256198D01*
X117600722Y-45256197D01*
X117438319Y-45183891D01*
X117438318Y-45183891D01*
X117432288Y-45181206D01*
X117338887Y-45161353D01*
X117251944Y-45142872D01*
X117251939Y-45142872D01*
X117245487Y-45141500D01*
X117054513Y-45141500D01*
X117048061Y-45142872D01*
X117048056Y-45142872D01*
X116961113Y-45161353D01*
X116867712Y-45181206D01*
X116861682Y-45183891D01*
X116861681Y-45183891D01*
X116700604Y-45255607D01*
X116649355Y-45266500D01*
X113195135Y-45266500D01*
X113127014Y-45246498D01*
X113080521Y-45192842D01*
X113075302Y-45179436D01*
X113036569Y-45060229D01*
X113034527Y-45053944D01*
X112939040Y-44888556D01*
X112811253Y-44746634D01*
X112705619Y-44669886D01*
X112662094Y-44638263D01*
X112662093Y-44638262D01*
X112656752Y-44634382D01*
X112650724Y-44631698D01*
X112650722Y-44631697D01*
X112488319Y-44559391D01*
X112488318Y-44559391D01*
X112482288Y-44556706D01*
X112388888Y-44536853D01*
X112301944Y-44518372D01*
X112301939Y-44518372D01*
X112295487Y-44517000D01*
X112104513Y-44517000D01*
X112098061Y-44518372D01*
X112098056Y-44518372D01*
X112011112Y-44536853D01*
X111917712Y-44556706D01*
X111911682Y-44559391D01*
X111911681Y-44559391D01*
X111749278Y-44631697D01*
X111749276Y-44631698D01*
X111743248Y-44634382D01*
X111737907Y-44638262D01*
X111737906Y-44638263D01*
X111694381Y-44669886D01*
X111588747Y-44746634D01*
X111460960Y-44888556D01*
X111365473Y-45053944D01*
X111306458Y-45235572D01*
X111305768Y-45242133D01*
X111305768Y-45242135D01*
X111294046Y-45353670D01*
X111267033Y-45419327D01*
X111208812Y-45459957D01*
X111168736Y-45466500D01*
X109308200Y-45466500D01*
X109240079Y-45446498D01*
X109220853Y-45430157D01*
X109220580Y-45430460D01*
X109215668Y-45426037D01*
X109211253Y-45421134D01*
X109056752Y-45308882D01*
X109050724Y-45306198D01*
X109050722Y-45306197D01*
X108888319Y-45233891D01*
X108888318Y-45233891D01*
X108882288Y-45231206D01*
X108788888Y-45211353D01*
X108701944Y-45192872D01*
X108701939Y-45192872D01*
X108695487Y-45191500D01*
X108634500Y-45191500D01*
X108566379Y-45171498D01*
X108519886Y-45117842D01*
X108508500Y-45065500D01*
X108508500Y-44784500D01*
X108528502Y-44716379D01*
X108582158Y-44669886D01*
X108634500Y-44658500D01*
X108645487Y-44658500D01*
X108651939Y-44657128D01*
X108651944Y-44657128D01*
X108740694Y-44638263D01*
X108832288Y-44618794D01*
X108955967Y-44563729D01*
X109000722Y-44543803D01*
X109000724Y-44543802D01*
X109006752Y-44541118D01*
X109039948Y-44517000D01*
X109064754Y-44498977D01*
X109161253Y-44428866D01*
X109209626Y-44375142D01*
X109284621Y-44291852D01*
X109284622Y-44291851D01*
X109289040Y-44286944D01*
X109384527Y-44121556D01*
X109443542Y-43939928D01*
X109444839Y-43927593D01*
X109445497Y-43921328D01*
X109472511Y-43855671D01*
X109530734Y-43815042D01*
X109570807Y-43808500D01*
X112271750Y-43808500D01*
X112292655Y-43810246D01*
X112307656Y-43812770D01*
X112307659Y-43812770D01*
X112312448Y-43813576D01*
X112318525Y-43813650D01*
X112320135Y-43813670D01*
X112320139Y-43813670D01*
X112325000Y-43813729D01*
X112329814Y-43813040D01*
X112329824Y-43813039D01*
X112346280Y-43810682D01*
X112353149Y-43809889D01*
X112500793Y-43796972D01*
X112506107Y-43795548D01*
X112506108Y-43795548D01*
X112665935Y-43752723D01*
X112665937Y-43752722D01*
X112671245Y-43751300D01*
X112676227Y-43748977D01*
X112826189Y-43679049D01*
X112826194Y-43679046D01*
X112831176Y-43676723D01*
X112975727Y-43575507D01*
X112976589Y-43574645D01*
X113040410Y-43546708D01*
X113110515Y-43557920D01*
X113145077Y-43582210D01*
X113240419Y-43676723D01*
X113254743Y-43690923D01*
X113258505Y-43693681D01*
X113258508Y-43693684D01*
X113452405Y-43835855D01*
X113465524Y-43845474D01*
X113469667Y-43847654D01*
X113469669Y-43847655D01*
X113692684Y-43964989D01*
X113692689Y-43964991D01*
X113696834Y-43967172D01*
X113943590Y-44053344D01*
X113948183Y-44054216D01*
X114195785Y-44101224D01*
X114195788Y-44101224D01*
X114200374Y-44102095D01*
X114330959Y-44107226D01*
X114456875Y-44112174D01*
X114456881Y-44112174D01*
X114461543Y-44112357D01*
X114540977Y-44103657D01*
X114716707Y-44084412D01*
X114716712Y-44084411D01*
X114721360Y-44083902D01*
X114750930Y-44076117D01*
X114969594Y-44018548D01*
X114969596Y-44018547D01*
X114974117Y-44017357D01*
X115214262Y-43914182D01*
X115243248Y-43896245D01*
X115340838Y-43835855D01*
X115409290Y-43817018D01*
X115477060Y-43838180D01*
X115522631Y-43892621D01*
X115522928Y-43893365D01*
X115523700Y-43896245D01*
X115526022Y-43901226D01*
X115526023Y-43901227D01*
X115595951Y-44051189D01*
X115595954Y-44051194D01*
X115598277Y-44056176D01*
X115639656Y-44115271D01*
X115687080Y-44182999D01*
X115699493Y-44200727D01*
X115824273Y-44325507D01*
X115828781Y-44328664D01*
X115828784Y-44328666D01*
X115841099Y-44337289D01*
X115968824Y-44426723D01*
X115973806Y-44429046D01*
X115973811Y-44429049D01*
X116123773Y-44498977D01*
X116128755Y-44501300D01*
X116134063Y-44502722D01*
X116134065Y-44502723D01*
X116293892Y-44545548D01*
X116293893Y-44545548D01*
X116299207Y-44546972D01*
X116428712Y-44558302D01*
X116438626Y-44559568D01*
X116449556Y-44561407D01*
X116457656Y-44562770D01*
X116457658Y-44562770D01*
X116462448Y-44563576D01*
X116468724Y-44563653D01*
X116470140Y-44563670D01*
X116470143Y-44563670D01*
X116475000Y-44563729D01*
X116502624Y-44559773D01*
X116520486Y-44558500D01*
X119921750Y-44558500D01*
X119942655Y-44560246D01*
X119957656Y-44562770D01*
X119957659Y-44562770D01*
X119962448Y-44563576D01*
X119968525Y-44563650D01*
X119970135Y-44563670D01*
X119970139Y-44563670D01*
X119975000Y-44563729D01*
X119979814Y-44563040D01*
X119979824Y-44563039D01*
X119996280Y-44560682D01*
X120003149Y-44559889D01*
X120150793Y-44546972D01*
X120156107Y-44545548D01*
X120156108Y-44545548D01*
X120315935Y-44502723D01*
X120315937Y-44502722D01*
X120321245Y-44501300D01*
X120326227Y-44498977D01*
X120476189Y-44429049D01*
X120476194Y-44429046D01*
X120481176Y-44426723D01*
X120608901Y-44337289D01*
X120621216Y-44328666D01*
X120621219Y-44328664D01*
X120625727Y-44325507D01*
X120750507Y-44200727D01*
X120762921Y-44182999D01*
X120810344Y-44115271D01*
X120851723Y-44056176D01*
X120854046Y-44051194D01*
X120854049Y-44051189D01*
X120923977Y-43901227D01*
X120923978Y-43901226D01*
X120926300Y-43896245D01*
X120934303Y-43866379D01*
X120970548Y-43731108D01*
X120970548Y-43731107D01*
X120971972Y-43725793D01*
X120983302Y-43596288D01*
X120984569Y-43586368D01*
X120987770Y-43567344D01*
X120987770Y-43567342D01*
X120988576Y-43562552D01*
X120988696Y-43552672D01*
X121560054Y-43552672D01*
X121563796Y-43557671D01*
X121598693Y-43573944D01*
X121608985Y-43577690D01*
X121818082Y-43633717D01*
X121828875Y-43635620D01*
X122044525Y-43654487D01*
X122055475Y-43654487D01*
X122271125Y-43635620D01*
X122281918Y-43633717D01*
X122491015Y-43577690D01*
X122501307Y-43573944D01*
X122529580Y-43560760D01*
X122540163Y-43551441D01*
X122538356Y-43545462D01*
X122062812Y-43069918D01*
X122048868Y-43062304D01*
X122047035Y-43062435D01*
X122040420Y-43066686D01*
X121566814Y-43540292D01*
X121560054Y-43552672D01*
X120988696Y-43552672D01*
X120988729Y-43550000D01*
X120984773Y-43522376D01*
X120983500Y-43504514D01*
X120983500Y-42934500D01*
X121003502Y-42866379D01*
X121057158Y-42819886D01*
X121109500Y-42808500D01*
X122069583Y-42808500D01*
X122072682Y-42809410D01*
G37*
%TD.AperFunction*%
%TD*%
M02*
