%TF.GenerationSoftware,KiCad,Pcbnew,(6.0.10)*%
%TF.CreationDate,2023-08-09T22:59:31-05:00*%
%TF.ProjectId,MVS Pause Button,4d565320-5061-4757-9365-20427574746f,rev?*%
%TF.SameCoordinates,Original*%
%TF.FileFunction,Drillmap*%
%TF.FilePolarity,Positive*%
%FSLAX45Y45*%
G04 Gerber Fmt 4.5, Leading zero omitted, Abs format (unit mm)*
G04 Created by KiCad (PCBNEW (6.0.10)) date 2023-08-09 22:59:31*
%MOMM*%
%LPD*%
G01*
G04 APERTURE LIST*
%ADD10C,0.100000*%
%ADD11C,0.200000*%
G04 APERTURE END LIST*
D10*
X11590000Y-5380000D02*
X11590000Y-4730000D01*
X12312500Y-4680000D02*
G75*
G03*
X12362500Y-4630000I0J50000D01*
G01*
X11540000Y-5430000D02*
G75*
G03*
X11590000Y-5380000I0J50000D01*
G01*
X11597500Y-4355000D02*
G75*
G03*
X11647500Y-4405000I50000J0D01*
G01*
X11232500Y-4330000D02*
X11207500Y-4330000D01*
X10770000Y-4330000D02*
X11145000Y-4330000D01*
X10570000Y-5430000D02*
X10770000Y-5430000D01*
X12072500Y-4230000D02*
X12337500Y-4230000D01*
X11860000Y-4680000D02*
X12312500Y-4680000D01*
X12072500Y-4230000D02*
G75*
G03*
X12047500Y-4255000I0J-25000D01*
G01*
X10520000Y-4380000D02*
X10520000Y-5380000D01*
X11307500Y-4230000D02*
G75*
G03*
X11282500Y-4255000I0J-25000D01*
G01*
X10570000Y-4330000D02*
X10770000Y-4330000D01*
X12362500Y-4255000D02*
X12362500Y-4610000D01*
X11232500Y-4330000D02*
G75*
G03*
X11282500Y-4280000I0J50000D01*
G01*
X11597500Y-4355000D02*
X11597500Y-4255000D01*
X11997500Y-4405000D02*
G75*
G03*
X12047500Y-4355000I0J50000D01*
G01*
X12047500Y-4355000D02*
X12047500Y-4255000D01*
X11640000Y-4680000D02*
G75*
G03*
X11590000Y-4730000I0J-50000D01*
G01*
X10520000Y-5380000D02*
G75*
G03*
X10570000Y-5430000I50000J0D01*
G01*
X11307500Y-4230000D02*
X11572500Y-4230000D01*
X11282500Y-4255000D02*
X11282500Y-4280000D01*
X12362500Y-4255000D02*
G75*
G03*
X12337500Y-4230000I-25000J0D01*
G01*
X11647500Y-4405000D02*
X11997500Y-4405000D01*
X11540000Y-5430000D02*
X11535000Y-5430000D01*
X11597500Y-4255000D02*
G75*
G03*
X11572500Y-4230000I-25000J0D01*
G01*
X11720000Y-4680000D02*
X11640000Y-4680000D01*
X12362500Y-4610000D02*
X12362500Y-4630000D01*
X11860000Y-4680000D02*
X11720000Y-4680000D01*
X11535000Y-5430000D02*
X10770000Y-5430000D01*
X10570000Y-4330000D02*
G75*
G03*
X10520000Y-4380000I0J-50000D01*
G01*
X11145000Y-4330000D02*
X11207500Y-4330000D01*
D11*
X10772619Y-5745476D02*
X10772619Y-5545476D01*
X10820238Y-5545476D01*
X10848810Y-5555000D01*
X10867857Y-5574048D01*
X10877381Y-5593095D01*
X10886905Y-5631190D01*
X10886905Y-5659762D01*
X10877381Y-5697857D01*
X10867857Y-5716905D01*
X10848810Y-5735952D01*
X10820238Y-5745476D01*
X10772619Y-5745476D01*
X10972619Y-5745476D02*
X10972619Y-5612143D01*
X10972619Y-5650238D02*
X10982143Y-5631190D01*
X10991667Y-5621667D01*
X11010714Y-5612143D01*
X11029762Y-5612143D01*
X11096429Y-5745476D02*
X11096429Y-5612143D01*
X11096429Y-5545476D02*
X11086905Y-5555000D01*
X11096429Y-5564524D01*
X11105952Y-5555000D01*
X11096429Y-5545476D01*
X11096429Y-5564524D01*
X11220238Y-5745476D02*
X11201190Y-5735952D01*
X11191667Y-5716905D01*
X11191667Y-5545476D01*
X11325000Y-5745476D02*
X11305952Y-5735952D01*
X11296428Y-5716905D01*
X11296428Y-5545476D01*
X11553571Y-5745476D02*
X11553571Y-5545476D01*
X11620238Y-5688333D01*
X11686905Y-5545476D01*
X11686905Y-5745476D01*
X11867857Y-5745476D02*
X11867857Y-5640714D01*
X11858333Y-5621667D01*
X11839286Y-5612143D01*
X11801190Y-5612143D01*
X11782143Y-5621667D01*
X11867857Y-5735952D02*
X11848809Y-5745476D01*
X11801190Y-5745476D01*
X11782143Y-5735952D01*
X11772619Y-5716905D01*
X11772619Y-5697857D01*
X11782143Y-5678809D01*
X11801190Y-5669286D01*
X11848809Y-5669286D01*
X11867857Y-5659762D01*
X11963095Y-5612143D02*
X11963095Y-5812143D01*
X11963095Y-5621667D02*
X11982143Y-5612143D01*
X12020238Y-5612143D01*
X12039286Y-5621667D01*
X12048809Y-5631190D01*
X12058333Y-5650238D01*
X12058333Y-5707381D01*
X12048809Y-5726428D01*
X12039286Y-5735952D01*
X12020238Y-5745476D01*
X11982143Y-5745476D01*
X11963095Y-5735952D01*
X12144048Y-5726428D02*
X12153571Y-5735952D01*
X12144048Y-5745476D01*
X12134524Y-5735952D01*
X12144048Y-5726428D01*
X12144048Y-5745476D01*
X12144048Y-5621667D02*
X12153571Y-5631190D01*
X12144048Y-5640714D01*
X12134524Y-5631190D01*
X12144048Y-5621667D01*
X12144048Y-5640714D01*
M02*
