%TF.GenerationSoftware,KiCad,Pcbnew,(6.0.10)*%
%TF.CreationDate,2023-08-09T22:59:31-05:00*%
%TF.ProjectId,MVS Pause Button,4d565320-5061-4757-9365-20427574746f,rev?*%
%TF.SameCoordinates,Original*%
%TF.FileFunction,Drillmap*%
%TF.FilePolarity,Positive*%
%FSLAX45Y45*%
G04 Gerber Fmt 4.5, Leading zero omitted, Abs format (unit mm)*
G04 Created by KiCad (PCBNEW (6.0.10)) date 2023-08-09 22:59:31*
%MOMM*%
%LPD*%
G01*
G04 APERTURE LIST*
%ADD10C,0.100000*%
%ADD11C,0.200000*%
%ADD12C,0.040000*%
%ADD13C,0.120000*%
G04 APERTURE END LIST*
D10*
X11590000Y-5380000D02*
X11590000Y-4730000D01*
X12312500Y-4680000D02*
G75*
G03*
X12362500Y-4630000I0J50000D01*
G01*
X11540000Y-5430000D02*
G75*
G03*
X11590000Y-5380000I0J50000D01*
G01*
X11597500Y-4355000D02*
G75*
G03*
X11647500Y-4405000I50000J0D01*
G01*
X11232500Y-4330000D02*
X11207500Y-4330000D01*
X10770000Y-4330000D02*
X11145000Y-4330000D01*
X10570000Y-5430000D02*
X10770000Y-5430000D01*
X12072500Y-4230000D02*
X12337500Y-4230000D01*
X11860000Y-4680000D02*
X12312500Y-4680000D01*
X12072500Y-4230000D02*
G75*
G03*
X12047500Y-4255000I0J-25000D01*
G01*
X10520000Y-4380000D02*
X10520000Y-5380000D01*
X11307500Y-4230000D02*
G75*
G03*
X11282500Y-4255000I0J-25000D01*
G01*
X10570000Y-4330000D02*
X10770000Y-4330000D01*
X12362500Y-4255000D02*
X12362500Y-4610000D01*
X11232500Y-4330000D02*
G75*
G03*
X11282500Y-4280000I0J50000D01*
G01*
X11597500Y-4355000D02*
X11597500Y-4255000D01*
X11997500Y-4405000D02*
G75*
G03*
X12047500Y-4355000I0J50000D01*
G01*
X12047500Y-4355000D02*
X12047500Y-4255000D01*
X11640000Y-4680000D02*
G75*
G03*
X11590000Y-4730000I0J-50000D01*
G01*
X10520000Y-5380000D02*
G75*
G03*
X10570000Y-5430000I50000J0D01*
G01*
X11307500Y-4230000D02*
X11572500Y-4230000D01*
X11282500Y-4255000D02*
X11282500Y-4280000D01*
X12362500Y-4255000D02*
G75*
G03*
X12337500Y-4230000I-25000J0D01*
G01*
X11647500Y-4405000D02*
X11997500Y-4405000D01*
X11540000Y-5430000D02*
X11535000Y-5430000D01*
X11597500Y-4255000D02*
G75*
G03*
X11572500Y-4230000I-25000J0D01*
G01*
X11720000Y-4680000D02*
X11640000Y-4680000D01*
X12362500Y-4610000D02*
X12362500Y-4630000D01*
X11860000Y-4680000D02*
X11720000Y-4680000D01*
X11535000Y-5430000D02*
X10770000Y-5430000D01*
X10570000Y-4330000D02*
G75*
G03*
X10520000Y-4380000I0J-50000D01*
G01*
X11145000Y-4330000D02*
X11207500Y-4330000D01*
D11*
D12*
X10817500Y-5303050D02*
X10857500Y-5343050D01*
X10857500Y-5303050D02*
X10817500Y-5343050D01*
X10835000Y-4355000D02*
X10875000Y-4395000D01*
X10875000Y-4355000D02*
X10835000Y-4395000D01*
X10840000Y-4590000D02*
X10880000Y-4630000D01*
X10880000Y-4590000D02*
X10840000Y-4630000D01*
X11012500Y-4865000D02*
X11052500Y-4905000D01*
X11052500Y-4865000D02*
X11012500Y-4905000D01*
X11200000Y-4395000D02*
X11240000Y-4435000D01*
X11240000Y-4395000D02*
X11200000Y-4435000D01*
X11200000Y-4522550D02*
X11240000Y-4562550D01*
X11240000Y-4522550D02*
X11200000Y-4562550D01*
X11200000Y-5275000D02*
X11240000Y-5315000D01*
X11240000Y-5275000D02*
X11200000Y-5315000D01*
X11490000Y-4660000D02*
X11530000Y-4700000D01*
X11530000Y-4660000D02*
X11490000Y-4700000D01*
X11695000Y-4585000D02*
X11735000Y-4625000D01*
X11735000Y-4585000D02*
X11695000Y-4625000D01*
D13*
X11500000Y-4235000D02*
G75*
G03*
X11500000Y-4235000I-60000J0D01*
G01*
X12265000Y-4235000D02*
G75*
G03*
X12265000Y-4235000I-60000J0D01*
G01*
D11*
X10772619Y-5745476D02*
X10772619Y-5545476D01*
X10820238Y-5545476D01*
X10848810Y-5555000D01*
X10867857Y-5574048D01*
X10877381Y-5593095D01*
X10886905Y-5631190D01*
X10886905Y-5659762D01*
X10877381Y-5697857D01*
X10867857Y-5716905D01*
X10848810Y-5735952D01*
X10820238Y-5745476D01*
X10772619Y-5745476D01*
X10972619Y-5745476D02*
X10972619Y-5612143D01*
X10972619Y-5650238D02*
X10982143Y-5631190D01*
X10991667Y-5621667D01*
X11010714Y-5612143D01*
X11029762Y-5612143D01*
X11096429Y-5745476D02*
X11096429Y-5612143D01*
X11096429Y-5545476D02*
X11086905Y-5555000D01*
X11096429Y-5564524D01*
X11105952Y-5555000D01*
X11096429Y-5545476D01*
X11096429Y-5564524D01*
X11220238Y-5745476D02*
X11201190Y-5735952D01*
X11191667Y-5716905D01*
X11191667Y-5545476D01*
X11325000Y-5745476D02*
X11305952Y-5735952D01*
X11296428Y-5716905D01*
X11296428Y-5545476D01*
X11553571Y-5745476D02*
X11553571Y-5545476D01*
X11620238Y-5688333D01*
X11686905Y-5545476D01*
X11686905Y-5745476D01*
X11867857Y-5745476D02*
X11867857Y-5640714D01*
X11858333Y-5621667D01*
X11839286Y-5612143D01*
X11801190Y-5612143D01*
X11782143Y-5621667D01*
X11867857Y-5735952D02*
X11848809Y-5745476D01*
X11801190Y-5745476D01*
X11782143Y-5735952D01*
X11772619Y-5716905D01*
X11772619Y-5697857D01*
X11782143Y-5678809D01*
X11801190Y-5669286D01*
X11848809Y-5669286D01*
X11867857Y-5659762D01*
X11963095Y-5612143D02*
X11963095Y-5812143D01*
X11963095Y-5621667D02*
X11982143Y-5612143D01*
X12020238Y-5612143D01*
X12039286Y-5621667D01*
X12048809Y-5631190D01*
X12058333Y-5650238D01*
X12058333Y-5707381D01*
X12048809Y-5726428D01*
X12039286Y-5735952D01*
X12020238Y-5745476D01*
X11982143Y-5745476D01*
X11963095Y-5735952D01*
X12144048Y-5726428D02*
X12153571Y-5735952D01*
X12144048Y-5745476D01*
X12134524Y-5735952D01*
X12144048Y-5726428D01*
X12144048Y-5745476D01*
X12144048Y-5621667D02*
X12153571Y-5631190D01*
X12144048Y-5640714D01*
X12134524Y-5631190D01*
X12144048Y-5621667D01*
X12144048Y-5640714D01*
D12*
X10475000Y-6055000D02*
X10515000Y-6095000D01*
X10515000Y-6055000D02*
X10475000Y-6095000D01*
D11*
X10810714Y-5965476D02*
X10829762Y-5965476D01*
X10848810Y-5975000D01*
X10858333Y-5984524D01*
X10867857Y-6003571D01*
X10877381Y-6041667D01*
X10877381Y-6089286D01*
X10867857Y-6127381D01*
X10858333Y-6146428D01*
X10848810Y-6155952D01*
X10829762Y-6165476D01*
X10810714Y-6165476D01*
X10791667Y-6155952D01*
X10782143Y-6146428D01*
X10772619Y-6127381D01*
X10763095Y-6089286D01*
X10763095Y-6041667D01*
X10772619Y-6003571D01*
X10782143Y-5984524D01*
X10791667Y-5975000D01*
X10810714Y-5965476D01*
X10963095Y-6146428D02*
X10972619Y-6155952D01*
X10963095Y-6165476D01*
X10953571Y-6155952D01*
X10963095Y-6146428D01*
X10963095Y-6165476D01*
X11144048Y-6032143D02*
X11144048Y-6165476D01*
X11096429Y-5955952D02*
X11048810Y-6098809D01*
X11172619Y-6098809D01*
X11286905Y-5965476D02*
X11305952Y-5965476D01*
X11325000Y-5975000D01*
X11334524Y-5984524D01*
X11344048Y-6003571D01*
X11353571Y-6041667D01*
X11353571Y-6089286D01*
X11344048Y-6127381D01*
X11334524Y-6146428D01*
X11325000Y-6155952D01*
X11305952Y-6165476D01*
X11286905Y-6165476D01*
X11267857Y-6155952D01*
X11258333Y-6146428D01*
X11248809Y-6127381D01*
X11239286Y-6089286D01*
X11239286Y-6041667D01*
X11248809Y-6003571D01*
X11258333Y-5984524D01*
X11267857Y-5975000D01*
X11286905Y-5965476D01*
X11477381Y-5965476D02*
X11496428Y-5965476D01*
X11515476Y-5975000D01*
X11525000Y-5984524D01*
X11534524Y-6003571D01*
X11544048Y-6041667D01*
X11544048Y-6089286D01*
X11534524Y-6127381D01*
X11525000Y-6146428D01*
X11515476Y-6155952D01*
X11496428Y-6165476D01*
X11477381Y-6165476D01*
X11458333Y-6155952D01*
X11448809Y-6146428D01*
X11439286Y-6127381D01*
X11429762Y-6089286D01*
X11429762Y-6041667D01*
X11439286Y-6003571D01*
X11448809Y-5984524D01*
X11458333Y-5975000D01*
X11477381Y-5965476D01*
X11629762Y-6165476D02*
X11629762Y-6032143D01*
X11629762Y-6051190D02*
X11639286Y-6041667D01*
X11658333Y-6032143D01*
X11686905Y-6032143D01*
X11705952Y-6041667D01*
X11715476Y-6060714D01*
X11715476Y-6165476D01*
X11715476Y-6060714D02*
X11725000Y-6041667D01*
X11744048Y-6032143D01*
X11772619Y-6032143D01*
X11791667Y-6041667D01*
X11801190Y-6060714D01*
X11801190Y-6165476D01*
X11896428Y-6165476D02*
X11896428Y-6032143D01*
X11896428Y-6051190D02*
X11905952Y-6041667D01*
X11925000Y-6032143D01*
X11953571Y-6032143D01*
X11972619Y-6041667D01*
X11982143Y-6060714D01*
X11982143Y-6165476D01*
X11982143Y-6060714D02*
X11991667Y-6041667D01*
X12010714Y-6032143D01*
X12039286Y-6032143D01*
X12058333Y-6041667D01*
X12067857Y-6060714D01*
X12067857Y-6165476D01*
X12458333Y-5955952D02*
X12286905Y-6213095D01*
X12715476Y-5965476D02*
X12734524Y-5965476D01*
X12753571Y-5975000D01*
X12763095Y-5984524D01*
X12772619Y-6003571D01*
X12782143Y-6041667D01*
X12782143Y-6089286D01*
X12772619Y-6127381D01*
X12763095Y-6146428D01*
X12753571Y-6155952D01*
X12734524Y-6165476D01*
X12715476Y-6165476D01*
X12696428Y-6155952D01*
X12686905Y-6146428D01*
X12677381Y-6127381D01*
X12667857Y-6089286D01*
X12667857Y-6041667D01*
X12677381Y-6003571D01*
X12686905Y-5984524D01*
X12696428Y-5975000D01*
X12715476Y-5965476D01*
X12867857Y-6146428D02*
X12877381Y-6155952D01*
X12867857Y-6165476D01*
X12858333Y-6155952D01*
X12867857Y-6146428D01*
X12867857Y-6165476D01*
X13001190Y-5965476D02*
X13020238Y-5965476D01*
X13039286Y-5975000D01*
X13048809Y-5984524D01*
X13058333Y-6003571D01*
X13067857Y-6041667D01*
X13067857Y-6089286D01*
X13058333Y-6127381D01*
X13048809Y-6146428D01*
X13039286Y-6155952D01*
X13020238Y-6165476D01*
X13001190Y-6165476D01*
X12982143Y-6155952D01*
X12972619Y-6146428D01*
X12963095Y-6127381D01*
X12953571Y-6089286D01*
X12953571Y-6041667D01*
X12963095Y-6003571D01*
X12972619Y-5984524D01*
X12982143Y-5975000D01*
X13001190Y-5965476D01*
X13258333Y-6165476D02*
X13144048Y-6165476D01*
X13201190Y-6165476D02*
X13201190Y-5965476D01*
X13182143Y-5994048D01*
X13163095Y-6013095D01*
X13144048Y-6022619D01*
X13439286Y-5965476D02*
X13344048Y-5965476D01*
X13334524Y-6060714D01*
X13344048Y-6051190D01*
X13363095Y-6041667D01*
X13410714Y-6041667D01*
X13429762Y-6051190D01*
X13439286Y-6060714D01*
X13448809Y-6079762D01*
X13448809Y-6127381D01*
X13439286Y-6146428D01*
X13429762Y-6155952D01*
X13410714Y-6165476D01*
X13363095Y-6165476D01*
X13344048Y-6155952D01*
X13334524Y-6146428D01*
X13515476Y-5965476D02*
X13648809Y-5965476D01*
X13563095Y-6165476D01*
X13715476Y-5965476D02*
X13715476Y-6003571D01*
X13791667Y-5965476D02*
X13791667Y-6003571D01*
X14086905Y-6241667D02*
X14077381Y-6232143D01*
X14058333Y-6203571D01*
X14048809Y-6184524D01*
X14039286Y-6155952D01*
X14029762Y-6108333D01*
X14029762Y-6070238D01*
X14039286Y-6022619D01*
X14048809Y-5994048D01*
X14058333Y-5975000D01*
X14077381Y-5946428D01*
X14086905Y-5936905D01*
X14172619Y-6165476D02*
X14210714Y-6165476D01*
X14229762Y-6155952D01*
X14239286Y-6146428D01*
X14258333Y-6117857D01*
X14267857Y-6079762D01*
X14267857Y-6003571D01*
X14258333Y-5984524D01*
X14248809Y-5975000D01*
X14229762Y-5965476D01*
X14191667Y-5965476D01*
X14172619Y-5975000D01*
X14163095Y-5984524D01*
X14153571Y-6003571D01*
X14153571Y-6051190D01*
X14163095Y-6070238D01*
X14172619Y-6079762D01*
X14191667Y-6089286D01*
X14229762Y-6089286D01*
X14248809Y-6079762D01*
X14258333Y-6070238D01*
X14267857Y-6051190D01*
X14505952Y-6165476D02*
X14505952Y-5965476D01*
X14591667Y-6165476D02*
X14591667Y-6060714D01*
X14582143Y-6041667D01*
X14563095Y-6032143D01*
X14534524Y-6032143D01*
X14515476Y-6041667D01*
X14505952Y-6051190D01*
X14715476Y-6165476D02*
X14696428Y-6155952D01*
X14686905Y-6146428D01*
X14677381Y-6127381D01*
X14677381Y-6070238D01*
X14686905Y-6051190D01*
X14696428Y-6041667D01*
X14715476Y-6032143D01*
X14744048Y-6032143D01*
X14763095Y-6041667D01*
X14772619Y-6051190D01*
X14782143Y-6070238D01*
X14782143Y-6127381D01*
X14772619Y-6146428D01*
X14763095Y-6155952D01*
X14744048Y-6165476D01*
X14715476Y-6165476D01*
X14896428Y-6165476D02*
X14877381Y-6155952D01*
X14867857Y-6136905D01*
X14867857Y-5965476D01*
X15048809Y-6155952D02*
X15029762Y-6165476D01*
X14991667Y-6165476D01*
X14972619Y-6155952D01*
X14963095Y-6136905D01*
X14963095Y-6060714D01*
X14972619Y-6041667D01*
X14991667Y-6032143D01*
X15029762Y-6032143D01*
X15048809Y-6041667D01*
X15058333Y-6060714D01*
X15058333Y-6079762D01*
X14963095Y-6098809D01*
X15134524Y-6155952D02*
X15153571Y-6165476D01*
X15191667Y-6165476D01*
X15210714Y-6155952D01*
X15220238Y-6136905D01*
X15220238Y-6127381D01*
X15210714Y-6108333D01*
X15191667Y-6098809D01*
X15163095Y-6098809D01*
X15144048Y-6089286D01*
X15134524Y-6070238D01*
X15134524Y-6060714D01*
X15144048Y-6041667D01*
X15163095Y-6032143D01*
X15191667Y-6032143D01*
X15210714Y-6041667D01*
X15286905Y-6241667D02*
X15296428Y-6232143D01*
X15315476Y-6203571D01*
X15325000Y-6184524D01*
X15334524Y-6155952D01*
X15344048Y-6108333D01*
X15344048Y-6070238D01*
X15334524Y-6022619D01*
X15325000Y-5994048D01*
X15315476Y-5975000D01*
X15296428Y-5946428D01*
X15286905Y-5936905D01*
D13*
X10515000Y-6339000D02*
G75*
G03*
X10515000Y-6339000I-60000J0D01*
G01*
D11*
X10877381Y-6429476D02*
X10763095Y-6429476D01*
X10820238Y-6429476D02*
X10820238Y-6229476D01*
X10801190Y-6258048D01*
X10782143Y-6277095D01*
X10763095Y-6286619D01*
X10963095Y-6410428D02*
X10972619Y-6419952D01*
X10963095Y-6429476D01*
X10953571Y-6419952D01*
X10963095Y-6410428D01*
X10963095Y-6429476D01*
X11048810Y-6248524D02*
X11058333Y-6239000D01*
X11077381Y-6229476D01*
X11125000Y-6229476D01*
X11144048Y-6239000D01*
X11153571Y-6248524D01*
X11163095Y-6267571D01*
X11163095Y-6286619D01*
X11153571Y-6315190D01*
X11039286Y-6429476D01*
X11163095Y-6429476D01*
X11286905Y-6229476D02*
X11305952Y-6229476D01*
X11325000Y-6239000D01*
X11334524Y-6248524D01*
X11344048Y-6267571D01*
X11353571Y-6305667D01*
X11353571Y-6353286D01*
X11344048Y-6391381D01*
X11334524Y-6410428D01*
X11325000Y-6419952D01*
X11305952Y-6429476D01*
X11286905Y-6429476D01*
X11267857Y-6419952D01*
X11258333Y-6410428D01*
X11248809Y-6391381D01*
X11239286Y-6353286D01*
X11239286Y-6305667D01*
X11248809Y-6267571D01*
X11258333Y-6248524D01*
X11267857Y-6239000D01*
X11286905Y-6229476D01*
X11477381Y-6229476D02*
X11496428Y-6229476D01*
X11515476Y-6239000D01*
X11525000Y-6248524D01*
X11534524Y-6267571D01*
X11544048Y-6305667D01*
X11544048Y-6353286D01*
X11534524Y-6391381D01*
X11525000Y-6410428D01*
X11515476Y-6419952D01*
X11496428Y-6429476D01*
X11477381Y-6429476D01*
X11458333Y-6419952D01*
X11448809Y-6410428D01*
X11439286Y-6391381D01*
X11429762Y-6353286D01*
X11429762Y-6305667D01*
X11439286Y-6267571D01*
X11448809Y-6248524D01*
X11458333Y-6239000D01*
X11477381Y-6229476D01*
X11629762Y-6429476D02*
X11629762Y-6296143D01*
X11629762Y-6315190D02*
X11639286Y-6305667D01*
X11658333Y-6296143D01*
X11686905Y-6296143D01*
X11705952Y-6305667D01*
X11715476Y-6324714D01*
X11715476Y-6429476D01*
X11715476Y-6324714D02*
X11725000Y-6305667D01*
X11744048Y-6296143D01*
X11772619Y-6296143D01*
X11791667Y-6305667D01*
X11801190Y-6324714D01*
X11801190Y-6429476D01*
X11896428Y-6429476D02*
X11896428Y-6296143D01*
X11896428Y-6315190D02*
X11905952Y-6305667D01*
X11925000Y-6296143D01*
X11953571Y-6296143D01*
X11972619Y-6305667D01*
X11982143Y-6324714D01*
X11982143Y-6429476D01*
X11982143Y-6324714D02*
X11991667Y-6305667D01*
X12010714Y-6296143D01*
X12039286Y-6296143D01*
X12058333Y-6305667D01*
X12067857Y-6324714D01*
X12067857Y-6429476D01*
X12458333Y-6219952D02*
X12286905Y-6477095D01*
X12715476Y-6229476D02*
X12734524Y-6229476D01*
X12753571Y-6239000D01*
X12763095Y-6248524D01*
X12772619Y-6267571D01*
X12782143Y-6305667D01*
X12782143Y-6353286D01*
X12772619Y-6391381D01*
X12763095Y-6410428D01*
X12753571Y-6419952D01*
X12734524Y-6429476D01*
X12715476Y-6429476D01*
X12696428Y-6419952D01*
X12686905Y-6410428D01*
X12677381Y-6391381D01*
X12667857Y-6353286D01*
X12667857Y-6305667D01*
X12677381Y-6267571D01*
X12686905Y-6248524D01*
X12696428Y-6239000D01*
X12715476Y-6229476D01*
X12867857Y-6410428D02*
X12877381Y-6419952D01*
X12867857Y-6429476D01*
X12858333Y-6419952D01*
X12867857Y-6410428D01*
X12867857Y-6429476D01*
X13001190Y-6229476D02*
X13020238Y-6229476D01*
X13039286Y-6239000D01*
X13048809Y-6248524D01*
X13058333Y-6267571D01*
X13067857Y-6305667D01*
X13067857Y-6353286D01*
X13058333Y-6391381D01*
X13048809Y-6410428D01*
X13039286Y-6419952D01*
X13020238Y-6429476D01*
X13001190Y-6429476D01*
X12982143Y-6419952D01*
X12972619Y-6410428D01*
X12963095Y-6391381D01*
X12953571Y-6353286D01*
X12953571Y-6305667D01*
X12963095Y-6267571D01*
X12972619Y-6248524D01*
X12982143Y-6239000D01*
X13001190Y-6229476D01*
X13239286Y-6296143D02*
X13239286Y-6429476D01*
X13191667Y-6219952D02*
X13144048Y-6362809D01*
X13267857Y-6362809D01*
X13325000Y-6229476D02*
X13458333Y-6229476D01*
X13372619Y-6429476D01*
X13525000Y-6248524D02*
X13534524Y-6239000D01*
X13553571Y-6229476D01*
X13601190Y-6229476D01*
X13620238Y-6239000D01*
X13629762Y-6248524D01*
X13639286Y-6267571D01*
X13639286Y-6286619D01*
X13629762Y-6315190D01*
X13515476Y-6429476D01*
X13639286Y-6429476D01*
X13715476Y-6229476D02*
X13715476Y-6267571D01*
X13791667Y-6229476D02*
X13791667Y-6267571D01*
X14086905Y-6505667D02*
X14077381Y-6496143D01*
X14058333Y-6467571D01*
X14048809Y-6448524D01*
X14039286Y-6419952D01*
X14029762Y-6372333D01*
X14029762Y-6334238D01*
X14039286Y-6286619D01*
X14048809Y-6258048D01*
X14058333Y-6239000D01*
X14077381Y-6210428D01*
X14086905Y-6200905D01*
X14153571Y-6248524D02*
X14163095Y-6239000D01*
X14182143Y-6229476D01*
X14229762Y-6229476D01*
X14248809Y-6239000D01*
X14258333Y-6248524D01*
X14267857Y-6267571D01*
X14267857Y-6286619D01*
X14258333Y-6315190D01*
X14144048Y-6429476D01*
X14267857Y-6429476D01*
X14505952Y-6429476D02*
X14505952Y-6229476D01*
X14591667Y-6429476D02*
X14591667Y-6324714D01*
X14582143Y-6305667D01*
X14563095Y-6296143D01*
X14534524Y-6296143D01*
X14515476Y-6305667D01*
X14505952Y-6315190D01*
X14715476Y-6429476D02*
X14696428Y-6419952D01*
X14686905Y-6410428D01*
X14677381Y-6391381D01*
X14677381Y-6334238D01*
X14686905Y-6315190D01*
X14696428Y-6305667D01*
X14715476Y-6296143D01*
X14744048Y-6296143D01*
X14763095Y-6305667D01*
X14772619Y-6315190D01*
X14782143Y-6334238D01*
X14782143Y-6391381D01*
X14772619Y-6410428D01*
X14763095Y-6419952D01*
X14744048Y-6429476D01*
X14715476Y-6429476D01*
X14896428Y-6429476D02*
X14877381Y-6419952D01*
X14867857Y-6400905D01*
X14867857Y-6229476D01*
X15048809Y-6419952D02*
X15029762Y-6429476D01*
X14991667Y-6429476D01*
X14972619Y-6419952D01*
X14963095Y-6400905D01*
X14963095Y-6324714D01*
X14972619Y-6305667D01*
X14991667Y-6296143D01*
X15029762Y-6296143D01*
X15048809Y-6305667D01*
X15058333Y-6324714D01*
X15058333Y-6343762D01*
X14963095Y-6362809D01*
X15134524Y-6419952D02*
X15153571Y-6429476D01*
X15191667Y-6429476D01*
X15210714Y-6419952D01*
X15220238Y-6400905D01*
X15220238Y-6391381D01*
X15210714Y-6372333D01*
X15191667Y-6362809D01*
X15163095Y-6362809D01*
X15144048Y-6353286D01*
X15134524Y-6334238D01*
X15134524Y-6324714D01*
X15144048Y-6305667D01*
X15163095Y-6296143D01*
X15191667Y-6296143D01*
X15210714Y-6305667D01*
X15286905Y-6505667D02*
X15296428Y-6496143D01*
X15315476Y-6467571D01*
X15325000Y-6448524D01*
X15334524Y-6419952D01*
X15344048Y-6372333D01*
X15344048Y-6334238D01*
X15334524Y-6286619D01*
X15325000Y-6258048D01*
X15315476Y-6239000D01*
X15296428Y-6210428D01*
X15286905Y-6200905D01*
M02*
