%TF.GenerationSoftware,KiCad,Pcbnew,(6.0.10)*%
%TF.CreationDate,2023-07-19T18:34:21-05:00*%
%TF.ProjectId,MVS Pause Button,4d565320-5061-4757-9365-20427574746f,rev?*%
%TF.SameCoordinates,Original*%
%TF.FileFunction,Copper,L1,Top*%
%TF.FilePolarity,Positive*%
%FSLAX46Y46*%
G04 Gerber Fmt 4.6, Leading zero omitted, Abs format (unit mm)*
G04 Created by KiCad (PCBNEW (6.0.10)) date 2023-07-19 18:34:21*
%MOMM*%
%LPD*%
G01*
G04 APERTURE LIST*
G04 Aperture macros list*
%AMRoundRect*
0 Rectangle with rounded corners*
0 $1 Rounding radius*
0 $2 $3 $4 $5 $6 $7 $8 $9 X,Y pos of 4 corners*
0 Add a 4 corners polygon primitive as box body*
4,1,4,$2,$3,$4,$5,$6,$7,$8,$9,$2,$3,0*
0 Add four circle primitives for the rounded corners*
1,1,$1+$1,$2,$3*
1,1,$1+$1,$4,$5*
1,1,$1+$1,$6,$7*
1,1,$1+$1,$8,$9*
0 Add four rect primitives between the rounded corners*
20,1,$1+$1,$2,$3,$4,$5,0*
20,1,$1+$1,$4,$5,$6,$7,0*
20,1,$1+$1,$6,$7,$8,$9,0*
20,1,$1+$1,$8,$9,$2,$3,0*%
G04 Aperture macros list end*
%TA.AperFunction,ComponentPad*%
%ADD10C,2.500000*%
%TD*%
%TA.AperFunction,SMDPad,CuDef*%
%ADD11R,2.000000X2.000000*%
%TD*%
%TA.AperFunction,SMDPad,CuDef*%
%ADD12RoundRect,0.237500X0.250000X0.237500X-0.250000X0.237500X-0.250000X-0.237500X0.250000X-0.237500X0*%
%TD*%
%TA.AperFunction,SMDPad,CuDef*%
%ADD13R,0.400000X1.500000*%
%TD*%
%TA.AperFunction,SMDPad,CuDef*%
%ADD14RoundRect,0.237500X0.300000X0.237500X-0.300000X0.237500X-0.300000X-0.237500X0.300000X-0.237500X0*%
%TD*%
%TA.AperFunction,SMDPad,CuDef*%
%ADD15RoundRect,0.237500X-0.250000X-0.237500X0.250000X-0.237500X0.250000X0.237500X-0.250000X0.237500X0*%
%TD*%
%TA.AperFunction,SMDPad,CuDef*%
%ADD16R,0.800000X1.900000*%
%TD*%
%TA.AperFunction,ViaPad*%
%ADD17C,0.800000*%
%TD*%
%TA.AperFunction,Conductor*%
%ADD18C,0.250000*%
%TD*%
G04 APERTURE END LIST*
D10*
%TO.P,J4,1,Pin_1*%
%TO.N,DIP8*%
X114400000Y-42350000D03*
%TD*%
%TO.P,J2,1,Pin_1*%
%TO.N,GND*%
X122050000Y-42350000D03*
%TD*%
D11*
%TO.P,J1,1,Pin_1*%
%TO.N,/Select*%
X106700000Y-44800000D03*
%TD*%
D12*
%TO.P,R1,1*%
%TO.N,+5V*%
X107812500Y-48600000D03*
%TO.P,R1,2*%
%TO.N,/Select*%
X105987500Y-48600000D03*
%TD*%
D13*
%TO.P,FLP1,6,CLR*%
%TO.N,/POR*%
X110975000Y-52880000D03*
%TO.P,FLP1,5,Vcc*%
%TO.N,+5V*%
X110325000Y-52880000D03*
%TO.P,FLP1,4,Q*%
%TO.N,/Feedback*%
X109675000Y-52880000D03*
%TO.P,FLP1,3,D*%
%TO.N,DIP8*%
X109675000Y-50220000D03*
%TO.P,FLP1,2,GND*%
%TO.N,GND*%
X110325000Y-50220000D03*
%TO.P,FLP1,1,CLK*%
%TO.N,/CLK*%
X110975000Y-50220000D03*
%TD*%
D14*
%TO.P,C1,2*%
%TO.N,INV_In*%
X112612500Y-44650000D03*
%TO.P,C1,1*%
%TO.N,GND*%
X114337500Y-44650000D03*
%TD*%
D15*
%TO.P,R2,1*%
%TO.N,/Select*%
X105987500Y-47100000D03*
%TO.P,R2,2*%
%TO.N,INV_In*%
X107812500Y-47100000D03*
%TD*%
D16*
%TO.P,POR1,3,VSS*%
%TO.N,GND*%
X113475000Y-46600000D03*
%TO.P,POR1,2,VDD*%
%TO.N,+5V*%
X114425000Y-49600000D03*
%TO.P,POR1,1,~{RST}*%
%TO.N,/POR*%
X112525000Y-49600000D03*
%TD*%
D11*
%TO.P,J3,1,Pin_1*%
%TO.N,+5V*%
X106700000Y-51300000D03*
%TD*%
D14*
%TO.P,DC1,2*%
%TO.N,GND*%
X112662500Y-51600000D03*
%TO.P,DC1,1*%
%TO.N,+5V*%
X114387500Y-51600000D03*
%TD*%
D13*
%TO.P,INV1,6,1Y*%
%TO.N,/CLK*%
X110975000Y-47430000D03*
%TO.P,INV1,5,Vcc*%
%TO.N,+5V*%
X110325000Y-47430000D03*
%TO.P,INV1,4,2Y*%
%TO.N,DIP8*%
X109675000Y-47430000D03*
%TO.P,INV1,3,2A*%
%TO.N,/Feedback*%
X109675000Y-44770000D03*
%TO.P,INV1,2,GND*%
%TO.N,GND*%
X110325000Y-44770000D03*
%TO.P,INV1,1,1A*%
%TO.N,INV_In*%
X110975000Y-44770000D03*
%TD*%
D17*
%TO.N,GND*%
X112075000Y-52900000D03*
X110325000Y-48850000D03*
X114950000Y-46750000D03*
%TO.N,DIP8*%
X108838044Y-49706394D03*
%TO.N,/Feedback*%
X108375000Y-53230500D03*
X108975000Y-43800000D03*
%TD*%
D18*
%TO.N,/POR*%
X111725000Y-50400000D02*
X112525000Y-49600000D01*
X111725000Y-51125000D02*
X111725000Y-50400000D01*
X110975000Y-51875000D02*
X111725000Y-51125000D01*
X110975000Y-52880000D02*
X110975000Y-51875000D01*
%TO.N,+5V*%
X114387500Y-49637500D02*
X114425000Y-49600000D01*
X114387500Y-51600000D02*
X114387500Y-49637500D01*
X106700000Y-49950000D02*
X106700000Y-51300000D01*
X107000000Y-49650000D02*
X106700000Y-49950000D01*
X107400000Y-49650000D02*
X107000000Y-49650000D01*
X107812500Y-48600000D02*
X107812500Y-49237500D01*
X107812500Y-49237500D02*
X107400000Y-49650000D01*
X110250000Y-53955000D02*
X110325000Y-53880000D01*
X107580000Y-53955000D02*
X110250000Y-53955000D01*
X106700000Y-51300000D02*
X106700000Y-53075000D01*
X106700000Y-53075000D02*
X107580000Y-53955000D01*
%TO.N,INV_In*%
X107812500Y-46337500D02*
X107812500Y-47100000D01*
X108245000Y-45905000D02*
X107812500Y-46337500D01*
X110840000Y-45905000D02*
X108245000Y-45905000D01*
X110975000Y-45770000D02*
X110840000Y-45905000D01*
X110975000Y-44770000D02*
X110975000Y-45770000D01*
%TO.N,/Select*%
X106700000Y-46000000D02*
X106700000Y-44800000D01*
X106500000Y-46200000D02*
X106700000Y-46000000D01*
X105687500Y-48300000D02*
X105987500Y-48600000D01*
X105987500Y-47100000D02*
X105987500Y-46412500D01*
X105987500Y-46412500D02*
X106200000Y-46200000D01*
X106200000Y-46200000D02*
X106500000Y-46200000D01*
X105987500Y-47100000D02*
X105687500Y-47400000D01*
X105687500Y-47400000D02*
X105687500Y-48300000D01*
%TO.N,GND*%
X113382500Y-43695000D02*
X114337500Y-44650000D01*
X110325000Y-48850000D02*
X110325000Y-50220000D01*
X110450000Y-43695000D02*
X113382500Y-43695000D01*
X110325000Y-44770000D02*
X110325000Y-43820000D01*
X110325000Y-43820000D02*
X110450000Y-43695000D01*
%TO.N,/CLK*%
X111050000Y-50145000D02*
X110975000Y-50220000D01*
X110975000Y-47430000D02*
X111050000Y-47505000D01*
X111050000Y-47505000D02*
X111050000Y-50145000D01*
%TO.N,DIP8*%
X108838044Y-49706394D02*
X109351650Y-50220000D01*
X109600000Y-48450000D02*
X109600000Y-47505000D01*
X109600000Y-47505000D02*
X109675000Y-47430000D01*
X109600000Y-50145000D02*
X109600000Y-48450000D01*
X109351650Y-50220000D02*
X109675000Y-50220000D01*
X109675000Y-50220000D02*
X109600000Y-50145000D01*
%TO.N,INV_In*%
X111095000Y-44650000D02*
X110975000Y-44770000D01*
X112612500Y-44650000D02*
X111095000Y-44650000D01*
%TO.N,/Feedback*%
X109675000Y-44770000D02*
X109675000Y-43900000D01*
X109575000Y-43800000D02*
X108975000Y-43800000D01*
X109675000Y-43900000D02*
X109575000Y-43800000D01*
X108375000Y-53230500D02*
X109324500Y-53230500D01*
X109324500Y-53230500D02*
X109675000Y-52880000D01*
%TO.N,+5V*%
X114425000Y-48275000D02*
X114425000Y-49600000D01*
X111775000Y-47500000D02*
X112375000Y-48100000D01*
X114250000Y-48100000D02*
X114425000Y-48275000D01*
X110400000Y-53955000D02*
X113620000Y-53955000D01*
X114387500Y-53187500D02*
X114387500Y-51600000D01*
X110325000Y-47430000D02*
X110325000Y-46430000D01*
X113620000Y-53955000D02*
X114387500Y-53187500D01*
X112375000Y-48100000D02*
X114250000Y-48100000D01*
X110325000Y-52880000D02*
X110325000Y-53880000D01*
X111330000Y-46355000D02*
X111775000Y-46800000D01*
X111775000Y-46800000D02*
X111775000Y-47500000D01*
X110325000Y-53880000D02*
X110400000Y-53955000D01*
X110400000Y-46355000D02*
X111330000Y-46355000D01*
X110325000Y-46430000D02*
X110400000Y-46355000D01*
%TD*%
%TA.AperFunction,Conductor*%
%TO.N,GND*%
G36*
X112858621Y-51366002D02*
G01*
X112905114Y-51419658D01*
X112916500Y-51472000D01*
X112916500Y-52564885D01*
X112920975Y-52580124D01*
X112922365Y-52581329D01*
X112930048Y-52583000D01*
X113008766Y-52583000D01*
X113015282Y-52582663D01*
X113109132Y-52572925D01*
X113122528Y-52570032D01*
X113273953Y-52519512D01*
X113287115Y-52513347D01*
X113422492Y-52429574D01*
X113433894Y-52420536D01*
X113435567Y-52418861D01*
X113436993Y-52418081D01*
X113439627Y-52415993D01*
X113439984Y-52416444D01*
X113497849Y-52384781D01*
X113568669Y-52389784D01*
X113613754Y-52418701D01*
X113616583Y-52421524D01*
X113621997Y-52426929D01*
X113628227Y-52430769D01*
X113628228Y-52430770D01*
X113694116Y-52471384D01*
X113741609Y-52524156D01*
X113754000Y-52578644D01*
X113754000Y-52872905D01*
X113733998Y-52941026D01*
X113717095Y-52962001D01*
X113394499Y-53284596D01*
X113332187Y-53318621D01*
X113305404Y-53321500D01*
X111809500Y-53321500D01*
X111741379Y-53301498D01*
X111694886Y-53247842D01*
X111683500Y-53195500D01*
X111683500Y-52516662D01*
X111703502Y-52448541D01*
X111757158Y-52402048D01*
X111827432Y-52391944D01*
X111887592Y-52417780D01*
X111903540Y-52430375D01*
X112039063Y-52513912D01*
X112052241Y-52520056D01*
X112203766Y-52570315D01*
X112217132Y-52573181D01*
X112309770Y-52582672D01*
X112316185Y-52583000D01*
X112390385Y-52583000D01*
X112405624Y-52578525D01*
X112406829Y-52577135D01*
X112408500Y-52569452D01*
X112408500Y-51472000D01*
X112428502Y-51403879D01*
X112482158Y-51357386D01*
X112534500Y-51346000D01*
X112790500Y-51346000D01*
X112858621Y-51366002D01*
G37*
%TD.AperFunction*%
%TA.AperFunction,Conductor*%
G36*
X122072682Y-42809410D02*
G01*
X122077726Y-42808500D01*
X122990500Y-42808500D01*
X123058621Y-42828502D01*
X123105114Y-42882158D01*
X123116500Y-42934500D01*
X123116500Y-46165500D01*
X123096498Y-46233621D01*
X123042842Y-46280114D01*
X122990500Y-46291500D01*
X116453250Y-46291500D01*
X116432345Y-46289754D01*
X116417344Y-46287230D01*
X116417341Y-46287230D01*
X116412552Y-46286424D01*
X116406475Y-46286350D01*
X116404865Y-46286330D01*
X116404861Y-46286330D01*
X116400000Y-46286271D01*
X116395186Y-46286960D01*
X116395176Y-46286961D01*
X116378720Y-46289318D01*
X116371851Y-46290111D01*
X116224207Y-46303028D01*
X116218893Y-46304452D01*
X116218892Y-46304452D01*
X116059065Y-46347277D01*
X116059063Y-46347278D01*
X116053755Y-46348700D01*
X116048774Y-46351022D01*
X116048773Y-46351023D01*
X115898811Y-46420951D01*
X115898806Y-46420954D01*
X115893824Y-46423277D01*
X115824241Y-46472000D01*
X115753784Y-46521334D01*
X115753781Y-46521336D01*
X115749273Y-46524493D01*
X115624493Y-46649273D01*
X115523277Y-46793824D01*
X115520954Y-46798806D01*
X115520951Y-46798811D01*
X115486769Y-46872115D01*
X115448700Y-46953755D01*
X115403028Y-47124207D01*
X115402549Y-47129687D01*
X115390987Y-47261839D01*
X115389969Y-47270224D01*
X115386309Y-47293724D01*
X115388771Y-47312552D01*
X115390436Y-47325283D01*
X115391500Y-47341621D01*
X115391500Y-48187587D01*
X115371498Y-48255708D01*
X115317842Y-48302201D01*
X115247568Y-48312305D01*
X115189110Y-48285607D01*
X115188261Y-48286739D01*
X115183070Y-48282848D01*
X115183068Y-48282847D01*
X115146857Y-48255708D01*
X115094875Y-48216750D01*
X115052360Y-48159891D01*
X115045434Y-48131716D01*
X115044468Y-48124071D01*
X115043474Y-48116203D01*
X115027194Y-48075086D01*
X115023359Y-48063885D01*
X115011018Y-48021406D01*
X115006985Y-48014587D01*
X115006983Y-48014582D01*
X115000707Y-48003971D01*
X114992010Y-47986221D01*
X114984552Y-47967383D01*
X114958571Y-47931623D01*
X114952053Y-47921701D01*
X114933578Y-47890460D01*
X114933574Y-47890455D01*
X114929542Y-47883637D01*
X114915218Y-47869313D01*
X114902376Y-47854278D01*
X114897783Y-47847956D01*
X114890472Y-47837893D01*
X114856406Y-47809711D01*
X114847627Y-47801722D01*
X114753652Y-47707747D01*
X114746112Y-47699461D01*
X114742000Y-47692982D01*
X114692348Y-47646356D01*
X114689507Y-47643602D01*
X114669770Y-47623865D01*
X114666573Y-47621385D01*
X114657551Y-47613680D01*
X114625321Y-47583414D01*
X114618375Y-47579595D01*
X114618372Y-47579593D01*
X114607566Y-47573652D01*
X114591047Y-47562801D01*
X114590583Y-47562441D01*
X114575041Y-47550386D01*
X114567772Y-47547241D01*
X114567768Y-47547238D01*
X114534463Y-47532826D01*
X114523813Y-47527609D01*
X114485060Y-47506305D01*
X114477384Y-47504334D01*
X114470013Y-47501416D01*
X114470514Y-47500150D01*
X114416656Y-47468089D01*
X114384969Y-47404555D01*
X114383000Y-47382365D01*
X114383000Y-46872115D01*
X114378525Y-46856876D01*
X114377135Y-46855671D01*
X114369452Y-46854000D01*
X113347000Y-46854000D01*
X113278879Y-46833998D01*
X113232386Y-46780342D01*
X113221000Y-46728000D01*
X113221000Y-46472000D01*
X113241002Y-46403879D01*
X113294658Y-46357386D01*
X113347000Y-46346000D01*
X114364884Y-46346000D01*
X114380123Y-46341525D01*
X114381328Y-46340135D01*
X114382999Y-46332452D01*
X114382999Y-45759000D01*
X114403001Y-45690879D01*
X114456657Y-45644386D01*
X114508999Y-45633000D01*
X114683766Y-45633000D01*
X114690282Y-45632663D01*
X114784132Y-45622925D01*
X114797528Y-45620032D01*
X114948953Y-45569512D01*
X114962115Y-45563347D01*
X115097492Y-45479574D01*
X115108890Y-45470540D01*
X115221363Y-45357871D01*
X115230375Y-45346460D01*
X115313912Y-45210937D01*
X115320056Y-45197759D01*
X115370315Y-45046234D01*
X115373181Y-45032868D01*
X115382672Y-44940230D01*
X115383000Y-44933815D01*
X115383000Y-44922115D01*
X115378525Y-44906876D01*
X115377135Y-44905671D01*
X115369452Y-44904000D01*
X114209500Y-44904000D01*
X114141379Y-44883998D01*
X114094886Y-44830342D01*
X114083500Y-44778000D01*
X114083500Y-44522000D01*
X114103502Y-44453879D01*
X114157158Y-44407386D01*
X114209500Y-44396000D01*
X115364885Y-44396000D01*
X115380124Y-44391525D01*
X115381329Y-44390135D01*
X115383000Y-44382452D01*
X115383000Y-44366234D01*
X115382663Y-44359718D01*
X115372925Y-44265868D01*
X115370032Y-44252472D01*
X115319512Y-44101047D01*
X115313347Y-44087885D01*
X115274487Y-44025087D01*
X115255650Y-43956635D01*
X115276812Y-43888865D01*
X115315330Y-43851640D01*
X115340839Y-43835855D01*
X115409292Y-43817018D01*
X115477061Y-43838180D01*
X115522631Y-43892622D01*
X115522929Y-43893368D01*
X115523700Y-43896245D01*
X115526022Y-43901226D01*
X115526023Y-43901227D01*
X115595951Y-44051189D01*
X115595954Y-44051194D01*
X115598277Y-44056176D01*
X115699493Y-44200727D01*
X115824273Y-44325507D01*
X115828781Y-44328664D01*
X115828784Y-44328666D01*
X115882437Y-44366234D01*
X115968824Y-44426723D01*
X115973806Y-44429046D01*
X115973811Y-44429049D01*
X116080645Y-44478866D01*
X116128755Y-44501300D01*
X116134063Y-44502722D01*
X116134065Y-44502723D01*
X116293892Y-44545548D01*
X116293893Y-44545548D01*
X116299207Y-44546972D01*
X116428712Y-44558302D01*
X116438626Y-44559568D01*
X116449556Y-44561407D01*
X116457656Y-44562770D01*
X116457658Y-44562770D01*
X116462448Y-44563576D01*
X116468724Y-44563653D01*
X116470140Y-44563670D01*
X116470143Y-44563670D01*
X116475000Y-44563729D01*
X116502624Y-44559773D01*
X116520486Y-44558500D01*
X119921750Y-44558500D01*
X119942655Y-44560246D01*
X119957656Y-44562770D01*
X119957659Y-44562770D01*
X119962448Y-44563576D01*
X119968525Y-44563650D01*
X119970135Y-44563670D01*
X119970139Y-44563670D01*
X119975000Y-44563729D01*
X119979814Y-44563040D01*
X119979824Y-44563039D01*
X119996280Y-44560682D01*
X120003149Y-44559889D01*
X120150793Y-44546972D01*
X120156107Y-44545548D01*
X120156108Y-44545548D01*
X120315935Y-44502723D01*
X120315937Y-44502722D01*
X120321245Y-44501300D01*
X120369355Y-44478866D01*
X120476189Y-44429049D01*
X120476194Y-44429046D01*
X120481176Y-44426723D01*
X120567563Y-44366234D01*
X120621216Y-44328666D01*
X120621219Y-44328664D01*
X120625727Y-44325507D01*
X120750507Y-44200727D01*
X120851723Y-44056176D01*
X120854046Y-44051194D01*
X120854049Y-44051189D01*
X120923977Y-43901227D01*
X120923978Y-43901226D01*
X120926300Y-43896245D01*
X120928278Y-43888865D01*
X120970548Y-43731108D01*
X120970548Y-43731107D01*
X120971972Y-43725793D01*
X120983302Y-43596288D01*
X120984569Y-43586368D01*
X120987770Y-43567344D01*
X120987770Y-43567342D01*
X120988576Y-43562552D01*
X120988696Y-43552672D01*
X121560054Y-43552672D01*
X121563796Y-43557671D01*
X121598693Y-43573944D01*
X121608985Y-43577690D01*
X121818082Y-43633717D01*
X121828875Y-43635620D01*
X122044525Y-43654487D01*
X122055475Y-43654487D01*
X122271125Y-43635620D01*
X122281918Y-43633717D01*
X122491015Y-43577690D01*
X122501307Y-43573944D01*
X122529580Y-43560760D01*
X122540163Y-43551441D01*
X122538356Y-43545462D01*
X122062812Y-43069918D01*
X122048868Y-43062304D01*
X122047035Y-43062435D01*
X122040420Y-43066686D01*
X121566814Y-43540292D01*
X121560054Y-43552672D01*
X120988696Y-43552672D01*
X120988729Y-43550000D01*
X120984773Y-43522376D01*
X120983500Y-43504514D01*
X120983500Y-42934500D01*
X121003502Y-42866379D01*
X121057158Y-42819886D01*
X121109500Y-42808500D01*
X122069583Y-42808500D01*
X122072682Y-42809410D01*
G37*
%TD.AperFunction*%
%TD*%
M02*
