%TF.GenerationSoftware,KiCad,Pcbnew,(6.0.10)*%
%TF.CreationDate,2023-08-09T22:59:08-05:00*%
%TF.ProjectId,MVS Pause Button,4d565320-5061-4757-9365-20427574746f,rev?*%
%TF.SameCoordinates,Original*%
%TF.FileFunction,Copper,L1,Top*%
%TF.FilePolarity,Positive*%
%FSLAX46Y46*%
G04 Gerber Fmt 4.6, Leading zero omitted, Abs format (unit mm)*
G04 Created by KiCad (PCBNEW (6.0.10)) date 2023-08-09 22:59:08*
%MOMM*%
%LPD*%
G01*
G04 APERTURE LIST*
G04 Aperture macros list*
%AMRoundRect*
0 Rectangle with rounded corners*
0 $1 Rounding radius*
0 $2 $3 $4 $5 $6 $7 $8 $9 X,Y pos of 4 corners*
0 Add a 4 corners polygon primitive as box body*
4,1,4,$2,$3,$4,$5,$6,$7,$8,$9,$2,$3,0*
0 Add four circle primitives for the rounded corners*
1,1,$1+$1,$2,$3*
1,1,$1+$1,$4,$5*
1,1,$1+$1,$6,$7*
1,1,$1+$1,$8,$9*
0 Add four rect primitives between the rounded corners*
20,1,$1+$1,$2,$3,$4,$5,0*
20,1,$1+$1,$4,$5,$6,$7,0*
20,1,$1+$1,$6,$7,$8,$9,0*
20,1,$1+$1,$8,$9,$2,$3,0*%
G04 Aperture macros list end*
%TA.AperFunction,SMDPad,CuDef*%
%ADD10R,0.400000X1.500000*%
%TD*%
%TA.AperFunction,SMDPad,CuDef*%
%ADD11RoundRect,0.237500X0.250000X0.237500X-0.250000X0.237500X-0.250000X-0.237500X0.250000X-0.237500X0*%
%TD*%
%TA.AperFunction,SMDPad,CuDef*%
%ADD12R,2.000000X2.000000*%
%TD*%
%TA.AperFunction,ComponentPad*%
%ADD13C,2.500000*%
%TD*%
%TA.AperFunction,SMDPad,CuDef*%
%ADD14RoundRect,0.237500X0.300000X0.237500X-0.300000X0.237500X-0.300000X-0.237500X0.300000X-0.237500X0*%
%TD*%
%TA.AperFunction,SMDPad,CuDef*%
%ADD15RoundRect,0.237500X-0.250000X-0.237500X0.250000X-0.237500X0.250000X0.237500X-0.250000X0.237500X0*%
%TD*%
%TA.AperFunction,SMDPad,CuDef*%
%ADD16R,0.800000X1.900000*%
%TD*%
%TA.AperFunction,SMDPad,CuDef*%
%ADD17C,0.500000*%
%TD*%
%TA.AperFunction,ViaPad*%
%ADD18C,0.800000*%
%TD*%
%TA.AperFunction,Conductor*%
%ADD19C,0.250000*%
%TD*%
G04 APERTURE END LIST*
D10*
%TO.P,INV1,1,1A*%
%TO.N,INV_In*%
X110975000Y-44770000D03*
%TO.P,INV1,2,GND*%
%TO.N,GND*%
X110325000Y-44770000D03*
%TO.P,INV1,3,2A*%
%TO.N,/Feedback*%
X109675000Y-44770000D03*
%TO.P,INV1,4,2Y*%
%TO.N,Net-(FLP1-Pad3)*%
X109675000Y-47430000D03*
%TO.P,INV1,5,Vcc*%
%TO.N,+5V*%
X110325000Y-47430000D03*
%TO.P,INV1,6,1Y*%
%TO.N,/CLK*%
X110975000Y-47430000D03*
%TD*%
D11*
%TO.P,R3,2*%
%TO.N,Net-(FLP1-Pad3)*%
X113387500Y-44700000D03*
%TO.P,R3,1*%
%TO.N,DIP8*%
X115212500Y-44700000D03*
%TD*%
D12*
%TO.P,J1,1,Pin_1*%
%TO.N,/Select*%
X106700000Y-44800000D03*
%TD*%
D11*
%TO.P,R2,1*%
%TO.N,+5V*%
X107812500Y-48600000D03*
%TO.P,R2,2*%
%TO.N,/Select*%
X105987500Y-48600000D03*
%TD*%
D13*
%TO.P,J2,1,Pin_1*%
%TO.N,GND*%
X122050000Y-42350000D03*
%TD*%
D10*
%TO.P,FLP1,1,CLK*%
%TO.N,/CLK*%
X110975000Y-50220000D03*
%TO.P,FLP1,2,GND*%
%TO.N,GND*%
X110325000Y-50220000D03*
%TO.P,FLP1,3,D*%
%TO.N,Net-(FLP1-Pad3)*%
X109675000Y-50220000D03*
%TO.P,FLP1,4,Q*%
%TO.N,/Feedback*%
X109675000Y-52880000D03*
%TO.P,FLP1,5,Vcc*%
%TO.N,+5V*%
X110325000Y-52880000D03*
%TO.P,FLP1,6,CLR*%
%TO.N,/POR*%
X110975000Y-52880000D03*
%TD*%
D14*
%TO.P,C1,1*%
%TO.N,GND*%
X120012500Y-45950000D03*
%TO.P,C1,2*%
%TO.N,INV_In*%
X118287500Y-45950000D03*
%TD*%
D15*
%TO.P,R1,2*%
%TO.N,INV_In*%
X107812500Y-47100000D03*
%TO.P,R1,1*%
%TO.N,/Select*%
X105987500Y-47100000D03*
%TD*%
D16*
%TO.P,POR1,1,~{RST}*%
%TO.N,/POR*%
X112900000Y-49750000D03*
%TO.P,POR1,2,VDD*%
%TO.N,+5V*%
X114800000Y-49750000D03*
%TO.P,POR1,3,VSS*%
%TO.N,GND*%
X113850000Y-46750000D03*
%TD*%
D12*
%TO.P,J3,1,Pin_1*%
%TO.N,+5V*%
X106700000Y-51300000D03*
%TD*%
D13*
%TO.P,J4,1,Pin_1*%
%TO.N,DIP8*%
X114400000Y-42350000D03*
%TD*%
D14*
%TO.P,C2,1*%
%TO.N,+5V*%
X114612500Y-51750000D03*
%TO.P,C2,2*%
%TO.N,GND*%
X112887500Y-51750000D03*
%TD*%
D17*
%TO.P,REF\u002A\u002A,*%
%TO.N,*%
X106000000Y-53500000D03*
%TD*%
%TO.P,REF\u002A\u002A,*%
%TO.N,*%
X115100000Y-53500000D03*
%TD*%
%TO.P,REF\u002A\u002A,*%
%TO.N,*%
X122800000Y-45950000D03*
%TD*%
D18*
%TO.N,GND*%
X112200000Y-44150000D03*
%TO.N,INV_In*%
X117150000Y-46050000D03*
X112200000Y-45425500D03*
X108600000Y-46100000D03*
%TO.N,GND*%
X112200000Y-52950000D03*
X110325000Y-48850000D03*
X115100000Y-46800000D03*
%TO.N,/Feedback*%
X108375000Y-53230500D03*
X108550000Y-43750000D03*
%TD*%
D19*
%TO.N,DIP8*%
X115212500Y-44700000D02*
X115212500Y-43162500D01*
%TO.N,Net-(FLP1-Pad3)*%
X109675000Y-46430000D02*
X109675000Y-47430000D01*
X110200000Y-45905000D02*
X109675000Y-46430000D01*
%TO.N,DIP8*%
X115212500Y-43162500D02*
X114475000Y-42425000D01*
%TO.N,Net-(FLP1-Pad3)*%
X113000000Y-46000000D02*
X112850000Y-46150000D01*
X113000000Y-45650000D02*
X113000000Y-46000000D01*
X111516396Y-45905000D02*
X110200000Y-45905000D01*
%TO.N,DIP8*%
X114475000Y-42425000D02*
X114437500Y-42425000D01*
%TO.N,Net-(FLP1-Pad3)*%
X113387500Y-44700000D02*
X113387500Y-45262500D01*
X112850000Y-46150000D02*
X111761396Y-46150000D01*
X113387500Y-45262500D02*
X113000000Y-45650000D01*
X111761396Y-46150000D02*
X111516396Y-45905000D01*
%TO.N,/Feedback*%
X109675000Y-43900000D02*
X109675000Y-44770000D01*
X109525000Y-43750000D02*
X109675000Y-43900000D01*
X108550000Y-43750000D02*
X109525000Y-43750000D01*
%TO.N,GND*%
X110325000Y-43820000D02*
X110325000Y-44770000D01*
X110450000Y-43695000D02*
X110325000Y-43820000D01*
X112200000Y-44150000D02*
X111745000Y-43695000D01*
X111745000Y-43695000D02*
X110450000Y-43695000D01*
%TO.N,INV_In*%
X111630500Y-45425500D02*
X110975000Y-44770000D01*
X112200000Y-45425500D02*
X111630500Y-45425500D01*
%TO.N,+5V*%
X114612500Y-52962500D02*
X114612500Y-51750000D01*
X110400000Y-53955000D02*
X113620000Y-53955000D01*
X114612500Y-49937500D02*
X114800000Y-49750000D01*
X113620000Y-53955000D02*
X114612500Y-52962500D01*
X114612500Y-51750000D02*
X114612500Y-49937500D01*
X110325000Y-53880000D02*
X110400000Y-53955000D01*
X114800000Y-48650000D02*
X114800000Y-49750000D01*
X114250000Y-48100000D02*
X114800000Y-48650000D01*
X112375000Y-48100000D02*
X114250000Y-48100000D01*
X111775000Y-47500000D02*
X112375000Y-48100000D01*
X111775000Y-46800000D02*
X111775000Y-47500000D01*
X111330000Y-46355000D02*
X111775000Y-46800000D01*
X110400000Y-46355000D02*
X111330000Y-46355000D01*
X110325000Y-46430000D02*
X110400000Y-46355000D01*
X110325000Y-47430000D02*
X110325000Y-46430000D01*
%TO.N,/POR*%
X110975000Y-51875000D02*
X111725000Y-51125000D01*
X110975000Y-52880000D02*
X110975000Y-51875000D01*
X111725000Y-51125000D02*
X111725000Y-50925000D01*
X111725000Y-50925000D02*
X112900000Y-49750000D01*
%TO.N,INV_In*%
X108245000Y-45905000D02*
X107812500Y-46337500D01*
X108405000Y-45905000D02*
X108245000Y-45905000D01*
X108600000Y-46100000D02*
X108405000Y-45905000D01*
X107812500Y-46337500D02*
X107812500Y-47100000D01*
X117250000Y-45950000D02*
X118287500Y-45950000D01*
X117150000Y-46050000D02*
X117250000Y-45950000D01*
%TO.N,/Select*%
X106700000Y-46000000D02*
X106700000Y-44800000D01*
X106500000Y-46200000D02*
X106700000Y-46000000D01*
X105687500Y-48300000D02*
X105987500Y-48600000D01*
X105987500Y-47100000D02*
X105987500Y-46412500D01*
X105987500Y-46412500D02*
X106200000Y-46200000D01*
X106200000Y-46200000D02*
X106500000Y-46200000D01*
X105987500Y-47100000D02*
X105687500Y-47400000D01*
X105687500Y-47400000D02*
X105687500Y-48300000D01*
%TO.N,GND*%
X110325000Y-48850000D02*
X110325000Y-50220000D01*
%TO.N,/CLK*%
X111050000Y-50145000D02*
X110975000Y-50220000D01*
X110975000Y-47430000D02*
X111050000Y-47505000D01*
X111050000Y-47505000D02*
X111050000Y-50145000D01*
%TO.N,Net-(FLP1-Pad3)*%
X109600000Y-48450000D02*
X109600000Y-47505000D01*
X109600000Y-47505000D02*
X109675000Y-47430000D01*
X109600000Y-50145000D02*
X109600000Y-48450000D01*
X109675000Y-50220000D02*
X109600000Y-50145000D01*
%TO.N,/Feedback*%
X108375000Y-53230500D02*
X109324500Y-53230500D01*
X109324500Y-53230500D02*
X109675000Y-52880000D01*
%TO.N,+5V*%
X106700000Y-51300000D02*
X106700000Y-53075000D01*
X106700000Y-53075000D02*
X107580000Y-53955000D01*
X107812500Y-48600000D02*
X107812500Y-49237500D01*
X107812500Y-49237500D02*
X107400000Y-49650000D01*
X110325000Y-52880000D02*
X110325000Y-53880000D01*
X106700000Y-49950000D02*
X106700000Y-51300000D01*
X107000000Y-49650000D02*
X106700000Y-49950000D01*
X107400000Y-49650000D02*
X107000000Y-49650000D01*
X110250000Y-53955000D02*
X110325000Y-53880000D01*
X107580000Y-53955000D02*
X110250000Y-53955000D01*
%TD*%
%TA.AperFunction,Conductor*%
%TO.N,GND*%
G36*
X113083621Y-51516002D02*
G01*
X113130114Y-51569658D01*
X113141500Y-51622000D01*
X113141500Y-52714885D01*
X113145975Y-52730124D01*
X113147365Y-52731329D01*
X113155048Y-52733000D01*
X113233766Y-52733000D01*
X113240282Y-52732663D01*
X113334132Y-52722925D01*
X113347528Y-52720032D01*
X113498953Y-52669512D01*
X113512115Y-52663347D01*
X113647492Y-52579574D01*
X113658894Y-52570536D01*
X113660567Y-52568861D01*
X113661993Y-52568081D01*
X113664627Y-52565993D01*
X113664984Y-52566444D01*
X113722849Y-52534781D01*
X113793669Y-52539784D01*
X113838754Y-52568701D01*
X113840593Y-52570536D01*
X113846997Y-52576929D01*
X113853229Y-52580771D01*
X113853231Y-52580772D01*
X113869165Y-52590594D01*
X113916659Y-52643366D01*
X113928083Y-52713437D01*
X113899809Y-52778561D01*
X113892145Y-52786949D01*
X113394499Y-53284595D01*
X113332187Y-53318621D01*
X113305404Y-53321500D01*
X111809500Y-53321500D01*
X111741379Y-53301498D01*
X111694886Y-53247842D01*
X111683500Y-53195500D01*
X111683500Y-52386484D01*
X111703502Y-52318363D01*
X111757158Y-52271870D01*
X111827432Y-52261766D01*
X111892012Y-52291260D01*
X111916645Y-52320181D01*
X111995429Y-52447496D01*
X112004460Y-52458890D01*
X112117129Y-52571363D01*
X112128540Y-52580375D01*
X112264063Y-52663912D01*
X112277241Y-52670056D01*
X112428766Y-52720315D01*
X112442132Y-52723181D01*
X112534770Y-52732672D01*
X112541185Y-52733000D01*
X112615385Y-52733000D01*
X112630624Y-52728525D01*
X112631829Y-52727135D01*
X112633500Y-52719452D01*
X112633500Y-51622000D01*
X112653502Y-51553879D01*
X112707158Y-51507386D01*
X112759500Y-51496000D01*
X113015500Y-51496000D01*
X113083621Y-51516002D01*
G37*
%TD.AperFunction*%
%TA.AperFunction,Conductor*%
G36*
X122072682Y-42809410D02*
G01*
X122077726Y-42808500D01*
X122990500Y-42808500D01*
X123058621Y-42828502D01*
X123105114Y-42882158D01*
X123116500Y-42934500D01*
X123116500Y-45353013D01*
X123096498Y-45421134D01*
X123042842Y-45467627D01*
X122972568Y-45477731D01*
X122954398Y-45473730D01*
X122933991Y-45467627D01*
X122874739Y-45449907D01*
X122865763Y-45449852D01*
X122865762Y-45449852D01*
X122805555Y-45449484D01*
X122731376Y-45449031D01*
X122593529Y-45488428D01*
X122472280Y-45564930D01*
X122377377Y-45672388D01*
X122316447Y-45802163D01*
X122315066Y-45811035D01*
X122299283Y-45912405D01*
X122294391Y-45943823D01*
X122312980Y-46085979D01*
X122316596Y-46094196D01*
X122325642Y-46114755D01*
X122334768Y-46185162D01*
X122304381Y-46249327D01*
X122244127Y-46286878D01*
X122210312Y-46291500D01*
X121172695Y-46291500D01*
X121104574Y-46271498D01*
X121058081Y-46217842D01*
X121054213Y-46207472D01*
X121052135Y-46205671D01*
X121044452Y-46204000D01*
X119884500Y-46204000D01*
X119816379Y-46183998D01*
X119769886Y-46130342D01*
X119758500Y-46078000D01*
X119758500Y-45677885D01*
X120266500Y-45677885D01*
X120270975Y-45693124D01*
X120272365Y-45694329D01*
X120280048Y-45696000D01*
X121039885Y-45696000D01*
X121055124Y-45691525D01*
X121056329Y-45690135D01*
X121058000Y-45682452D01*
X121058000Y-45666234D01*
X121057663Y-45659718D01*
X121047925Y-45565868D01*
X121045032Y-45552472D01*
X120994512Y-45401047D01*
X120988347Y-45387885D01*
X120904574Y-45252508D01*
X120895540Y-45241110D01*
X120782871Y-45128637D01*
X120771460Y-45119625D01*
X120635937Y-45036088D01*
X120622759Y-45029944D01*
X120471234Y-44979685D01*
X120457868Y-44976819D01*
X120365230Y-44967328D01*
X120358815Y-44967000D01*
X120284615Y-44967000D01*
X120269376Y-44971475D01*
X120268171Y-44972865D01*
X120266500Y-44980548D01*
X120266500Y-45677885D01*
X119758500Y-45677885D01*
X119758500Y-44985115D01*
X119754025Y-44969876D01*
X119752635Y-44968671D01*
X119744952Y-44967000D01*
X119666234Y-44967000D01*
X119659718Y-44967337D01*
X119565868Y-44977075D01*
X119552472Y-44979968D01*
X119401047Y-45030488D01*
X119387885Y-45036653D01*
X119252508Y-45120426D01*
X119241106Y-45129464D01*
X119239433Y-45131139D01*
X119238007Y-45131919D01*
X119235373Y-45134007D01*
X119235016Y-45133556D01*
X119177151Y-45165219D01*
X119106331Y-45160216D01*
X119061246Y-45131299D01*
X119058185Y-45128244D01*
X119053003Y-45123071D01*
X119013664Y-45098822D01*
X118911150Y-45035631D01*
X118911148Y-45035630D01*
X118904920Y-45031791D01*
X118739809Y-44977026D01*
X118732973Y-44976326D01*
X118732970Y-44976325D01*
X118681474Y-44971049D01*
X118637072Y-44966500D01*
X117937928Y-44966500D01*
X117934682Y-44966837D01*
X117934678Y-44966837D01*
X117840765Y-44976581D01*
X117840761Y-44976582D01*
X117833907Y-44977293D01*
X117827371Y-44979474D01*
X117827369Y-44979474D01*
X117795007Y-44990271D01*
X117668893Y-45032346D01*
X117520969Y-45123884D01*
X117515796Y-45129066D01*
X117506623Y-45138255D01*
X117444340Y-45172334D01*
X117391254Y-45172484D01*
X117333538Y-45160216D01*
X117251944Y-45142872D01*
X117251939Y-45142872D01*
X117245487Y-45141500D01*
X117054513Y-45141500D01*
X117048061Y-45142872D01*
X117048056Y-45142872D01*
X116961113Y-45161353D01*
X116867712Y-45181206D01*
X116861682Y-45183891D01*
X116861681Y-45183891D01*
X116699278Y-45256197D01*
X116699276Y-45256198D01*
X116693248Y-45258882D01*
X116538747Y-45371134D01*
X116534326Y-45376044D01*
X116534325Y-45376045D01*
X116435356Y-45485962D01*
X116410960Y-45513056D01*
X116315473Y-45678444D01*
X116256458Y-45860072D01*
X116255768Y-45866633D01*
X116255768Y-45866635D01*
X116244891Y-45970125D01*
X116236496Y-46050000D01*
X116237186Y-46056565D01*
X116250776Y-46185870D01*
X116238004Y-46255708D01*
X116189502Y-46307555D01*
X116158077Y-46320747D01*
X116059065Y-46347277D01*
X116059063Y-46347278D01*
X116053755Y-46348700D01*
X116048774Y-46351022D01*
X116048773Y-46351023D01*
X115898811Y-46420951D01*
X115898806Y-46420954D01*
X115893824Y-46423277D01*
X115818824Y-46475793D01*
X115753784Y-46521334D01*
X115753781Y-46521336D01*
X115749273Y-46524493D01*
X115624493Y-46649273D01*
X115621336Y-46653781D01*
X115621334Y-46653784D01*
X115582285Y-46709552D01*
X115523277Y-46793824D01*
X115520954Y-46798806D01*
X115520951Y-46798811D01*
X115459170Y-46931301D01*
X115448700Y-46953755D01*
X115403028Y-47124207D01*
X115402549Y-47129687D01*
X115390987Y-47261839D01*
X115389969Y-47270224D01*
X115386309Y-47293724D01*
X115388771Y-47312552D01*
X115390436Y-47325283D01*
X115391500Y-47341621D01*
X115391500Y-48041405D01*
X115371498Y-48109526D01*
X115317842Y-48156019D01*
X115247568Y-48166123D01*
X115182988Y-48136629D01*
X115176405Y-48130500D01*
X114794905Y-47749000D01*
X114760879Y-47686688D01*
X114758000Y-47659905D01*
X114758000Y-47022115D01*
X114753525Y-47006876D01*
X114752135Y-47005671D01*
X114744452Y-47004000D01*
X113722000Y-47004000D01*
X113653879Y-46983998D01*
X113607386Y-46930342D01*
X113596000Y-46878000D01*
X113596000Y-46622000D01*
X113616002Y-46553879D01*
X113669658Y-46507386D01*
X113722000Y-46496000D01*
X114739884Y-46496000D01*
X114755123Y-46491525D01*
X114756328Y-46490135D01*
X114757999Y-46482452D01*
X114757999Y-45807196D01*
X114778001Y-45739075D01*
X114831657Y-45692582D01*
X114896840Y-45681852D01*
X114909726Y-45683172D01*
X114909727Y-45683172D01*
X114912928Y-45683500D01*
X115512072Y-45683500D01*
X115515318Y-45683163D01*
X115515322Y-45683163D01*
X115609235Y-45673419D01*
X115609239Y-45673418D01*
X115616093Y-45672707D01*
X115622629Y-45670526D01*
X115622631Y-45670526D01*
X115774159Y-45619972D01*
X115781107Y-45617654D01*
X115929031Y-45526116D01*
X115987418Y-45467627D01*
X116046758Y-45408184D01*
X116046762Y-45408179D01*
X116051929Y-45403003D01*
X116068546Y-45376045D01*
X116139369Y-45261150D01*
X116139370Y-45261148D01*
X116143209Y-45254920D01*
X116197974Y-45089809D01*
X116208500Y-44987072D01*
X116208500Y-44676542D01*
X116228502Y-44608421D01*
X116282158Y-44561928D01*
X116345481Y-44551021D01*
X116428708Y-44558302D01*
X116438626Y-44559568D01*
X116449478Y-44561394D01*
X116457656Y-44562770D01*
X116457658Y-44562770D01*
X116462448Y-44563576D01*
X116468724Y-44563653D01*
X116470140Y-44563670D01*
X116470143Y-44563670D01*
X116475000Y-44563729D01*
X116502624Y-44559773D01*
X116520486Y-44558500D01*
X119921750Y-44558500D01*
X119942655Y-44560246D01*
X119957656Y-44562770D01*
X119957659Y-44562770D01*
X119962448Y-44563576D01*
X119968525Y-44563650D01*
X119970135Y-44563670D01*
X119970139Y-44563670D01*
X119975000Y-44563729D01*
X119979814Y-44563040D01*
X119979824Y-44563039D01*
X119996280Y-44560682D01*
X120003149Y-44559889D01*
X120150793Y-44546972D01*
X120156107Y-44545548D01*
X120156108Y-44545548D01*
X120315935Y-44502723D01*
X120315937Y-44502722D01*
X120321245Y-44501300D01*
X120326227Y-44498977D01*
X120476189Y-44429049D01*
X120476194Y-44429046D01*
X120481176Y-44426723D01*
X120561874Y-44370217D01*
X120621216Y-44328666D01*
X120621219Y-44328664D01*
X120625727Y-44325507D01*
X120750507Y-44200727D01*
X120851723Y-44056176D01*
X120854046Y-44051194D01*
X120854049Y-44051189D01*
X120923977Y-43901227D01*
X120923978Y-43901226D01*
X120926300Y-43896245D01*
X120943134Y-43833421D01*
X120970548Y-43731108D01*
X120970548Y-43731107D01*
X120971972Y-43725793D01*
X120983302Y-43596288D01*
X120984569Y-43586368D01*
X120987770Y-43567344D01*
X120987770Y-43567342D01*
X120988576Y-43562552D01*
X120988696Y-43552672D01*
X121560054Y-43552672D01*
X121563796Y-43557671D01*
X121598693Y-43573944D01*
X121608985Y-43577690D01*
X121818082Y-43633717D01*
X121828875Y-43635620D01*
X122044525Y-43654487D01*
X122055475Y-43654487D01*
X122271125Y-43635620D01*
X122281918Y-43633717D01*
X122491015Y-43577690D01*
X122501307Y-43573944D01*
X122529580Y-43560760D01*
X122540163Y-43551441D01*
X122538356Y-43545462D01*
X122062812Y-43069918D01*
X122048868Y-43062304D01*
X122047035Y-43062435D01*
X122040420Y-43066686D01*
X121566814Y-43540292D01*
X121560054Y-43552672D01*
X120988696Y-43552672D01*
X120988729Y-43550000D01*
X120984773Y-43522376D01*
X120983500Y-43504514D01*
X120983500Y-42934500D01*
X121003502Y-42866379D01*
X121057158Y-42819886D01*
X121109500Y-42808500D01*
X122069583Y-42808500D01*
X122072682Y-42809410D01*
G37*
%TD.AperFunction*%
%TA.AperFunction,Conductor*%
G36*
X112501284Y-43817009D02*
G01*
X112552276Y-43866408D01*
X112568466Y-43935534D01*
X112545734Y-43995557D01*
X112548071Y-43996997D01*
X112456791Y-44145080D01*
X112402026Y-44310191D01*
X112401326Y-44317027D01*
X112401325Y-44317030D01*
X112392431Y-44403842D01*
X112365590Y-44469569D01*
X112307475Y-44510352D01*
X112267087Y-44517000D01*
X112104513Y-44517000D01*
X112098061Y-44518372D01*
X112098056Y-44518372D01*
X112011112Y-44536853D01*
X111917712Y-44556706D01*
X111911685Y-44559389D01*
X111911677Y-44559392D01*
X111860748Y-44582067D01*
X111790381Y-44591501D01*
X111726084Y-44561394D01*
X111688271Y-44501305D01*
X111683500Y-44466960D01*
X111683500Y-43971866D01*
X111680919Y-43948108D01*
X111693447Y-43878226D01*
X111741767Y-43826210D01*
X111806182Y-43808500D01*
X112271750Y-43808500D01*
X112292655Y-43810246D01*
X112307656Y-43812770D01*
X112307659Y-43812770D01*
X112312448Y-43813576D01*
X112318525Y-43813650D01*
X112320135Y-43813670D01*
X112320139Y-43813670D01*
X112325000Y-43813729D01*
X112329814Y-43813040D01*
X112329824Y-43813039D01*
X112346280Y-43810682D01*
X112353153Y-43809889D01*
X112395468Y-43806187D01*
X112431679Y-43803019D01*
X112501284Y-43817009D01*
G37*
%TD.AperFunction*%
%TD*%
M02*
