%TF.GenerationSoftware,KiCad,Pcbnew,(6.0.10)*%
%TF.CreationDate,2023-07-19T18:34:21-05:00*%
%TF.ProjectId,MVS Pause Button,4d565320-5061-4757-9365-20427574746f,rev?*%
%TF.SameCoordinates,Original*%
%TF.FileFunction,Copper,L2,Bot*%
%TF.FilePolarity,Positive*%
%FSLAX46Y46*%
G04 Gerber Fmt 4.6, Leading zero omitted, Abs format (unit mm)*
G04 Created by KiCad (PCBNEW (6.0.10)) date 2023-07-19 18:34:21*
%MOMM*%
%LPD*%
G01*
G04 APERTURE LIST*
%TA.AperFunction,ComponentPad*%
%ADD10C,2.500000*%
%TD*%
%TA.AperFunction,SMDPad,CuDef*%
%ADD11C,0.500000*%
%TD*%
%TA.AperFunction,ViaPad*%
%ADD12C,0.800000*%
%TD*%
%TA.AperFunction,Conductor*%
%ADD13C,0.250000*%
%TD*%
G04 APERTURE END LIST*
D10*
%TO.P,J4,1,Pin_1*%
%TO.N,DIP8*%
X114400000Y-42350000D03*
%TD*%
%TO.P,J2,1,Pin_1*%
%TO.N,GND*%
X122050000Y-42350000D03*
%TD*%
D11*
%TO.P,REF\u002A\u002A,*%
%TO.N,*%
X106200000Y-53300000D03*
%TD*%
%TO.P,REF\u002A\u002A,*%
%TO.N,*%
X115000000Y-53300000D03*
%TD*%
%TO.P,REF\u002A\u002A,*%
%TO.N,*%
X106200000Y-44300000D03*
%TD*%
D12*
%TO.N,GND*%
X112075000Y-52900000D03*
X110325000Y-48850000D03*
X114950000Y-46750000D03*
%TO.N,DIP8*%
X108838044Y-49706394D03*
%TO.N,/Feedback*%
X108375000Y-53230500D03*
X108975000Y-43800000D03*
%TD*%
D13*
%TO.N,DIP8*%
X109300000Y-46075000D02*
X108825000Y-46550000D01*
X112700000Y-46075000D02*
X109300000Y-46075000D01*
X108825000Y-46550000D02*
X108825000Y-49693350D01*
X114400000Y-42425000D02*
X114400000Y-44375000D01*
X114400000Y-44375000D02*
X112700000Y-46075000D01*
X108825000Y-49693350D02*
X108838044Y-49706394D01*
%TO.N,/Feedback*%
X107875000Y-44900000D02*
X107875000Y-52730500D01*
X107875000Y-52730500D02*
X108375000Y-53230500D01*
X108975000Y-43800000D02*
X107875000Y-44900000D01*
%TD*%
%TA.AperFunction,Conductor*%
%TO.N,GND*%
G36*
X122072682Y-42809410D02*
G01*
X122077726Y-42808500D01*
X122990500Y-42808500D01*
X123058621Y-42828502D01*
X123105114Y-42882158D01*
X123116500Y-42934500D01*
X123116500Y-46165500D01*
X123096498Y-46233621D01*
X123042842Y-46280114D01*
X122990500Y-46291500D01*
X116453250Y-46291500D01*
X116432345Y-46289754D01*
X116417344Y-46287230D01*
X116417341Y-46287230D01*
X116412552Y-46286424D01*
X116406475Y-46286350D01*
X116404865Y-46286330D01*
X116404861Y-46286330D01*
X116400000Y-46286271D01*
X116395186Y-46286960D01*
X116395176Y-46286961D01*
X116378720Y-46289318D01*
X116371851Y-46290111D01*
X116224207Y-46303028D01*
X116218893Y-46304452D01*
X116218892Y-46304452D01*
X116059065Y-46347277D01*
X116059063Y-46347278D01*
X116053755Y-46348700D01*
X116048774Y-46351022D01*
X116048773Y-46351023D01*
X115898811Y-46420951D01*
X115898806Y-46420954D01*
X115893824Y-46423277D01*
X115818824Y-46475793D01*
X115753784Y-46521334D01*
X115753781Y-46521336D01*
X115749273Y-46524493D01*
X115624493Y-46649273D01*
X115621336Y-46653781D01*
X115621334Y-46653784D01*
X115604941Y-46677196D01*
X115523277Y-46793824D01*
X115520954Y-46798806D01*
X115520951Y-46798811D01*
X115517517Y-46806176D01*
X115448700Y-46953755D01*
X115403028Y-47124207D01*
X115402549Y-47129687D01*
X115390987Y-47261839D01*
X115389969Y-47270224D01*
X115386309Y-47293724D01*
X115388771Y-47312552D01*
X115390436Y-47325283D01*
X115391500Y-47341621D01*
X115391500Y-52728263D01*
X115371498Y-52796384D01*
X115317842Y-52842877D01*
X115247568Y-52852981D01*
X115216337Y-52843735D01*
X115212095Y-52840985D01*
X115203498Y-52838414D01*
X115203496Y-52838413D01*
X115121194Y-52813800D01*
X115074739Y-52799907D01*
X115065763Y-52799852D01*
X115065762Y-52799852D01*
X115005555Y-52799484D01*
X114931376Y-52799031D01*
X114793529Y-52838428D01*
X114672280Y-52914930D01*
X114577377Y-53022388D01*
X114516447Y-53152163D01*
X114512747Y-53175928D01*
X114499682Y-53259842D01*
X114494391Y-53293823D01*
X114495555Y-53302725D01*
X114495555Y-53302728D01*
X114496814Y-53312354D01*
X114512980Y-53435979D01*
X114570720Y-53567203D01*
X114585197Y-53584426D01*
X114613718Y-53649439D01*
X114602563Y-53719553D01*
X114555271Y-53772506D01*
X114488746Y-53791500D01*
X109318390Y-53791500D01*
X109250269Y-53771498D01*
X109203776Y-53717842D01*
X109193672Y-53647568D01*
X109205105Y-53614504D01*
X109203539Y-53613807D01*
X109206223Y-53607779D01*
X109209527Y-53602056D01*
X109268542Y-53420428D01*
X109270509Y-53401719D01*
X109287814Y-53237065D01*
X109288504Y-53230500D01*
X109268542Y-53040572D01*
X109209527Y-52858944D01*
X109197674Y-52838413D01*
X109117341Y-52699274D01*
X109114040Y-52693556D01*
X109093199Y-52670409D01*
X108990675Y-52556545D01*
X108990674Y-52556544D01*
X108986253Y-52551634D01*
X108831752Y-52439382D01*
X108825724Y-52436698D01*
X108825722Y-52436697D01*
X108663319Y-52364391D01*
X108663318Y-52364391D01*
X108657288Y-52361706D01*
X108608303Y-52351294D01*
X108545830Y-52317566D01*
X108511508Y-52255416D01*
X108508500Y-52228047D01*
X108508500Y-50720741D01*
X108528502Y-50652620D01*
X108582158Y-50606127D01*
X108652432Y-50596023D01*
X108660697Y-50597494D01*
X108736100Y-50613522D01*
X108736105Y-50613522D01*
X108742557Y-50614894D01*
X108933531Y-50614894D01*
X108939983Y-50613522D01*
X108939988Y-50613522D01*
X109026931Y-50595041D01*
X109120332Y-50575188D01*
X109167589Y-50554148D01*
X109288766Y-50500197D01*
X109288768Y-50500196D01*
X109294796Y-50497512D01*
X109449297Y-50385260D01*
X109577084Y-50243338D01*
X109672571Y-50077950D01*
X109731586Y-49896322D01*
X109751548Y-49706394D01*
X109731586Y-49516466D01*
X109672571Y-49334838D01*
X109577084Y-49169450D01*
X109490864Y-49073693D01*
X109460147Y-49009686D01*
X109458500Y-48989383D01*
X109458500Y-46864594D01*
X109478502Y-46796473D01*
X109495405Y-46775499D01*
X109525499Y-46745405D01*
X109587811Y-46711379D01*
X109614594Y-46708500D01*
X112621233Y-46708500D01*
X112632416Y-46709027D01*
X112639909Y-46710702D01*
X112647835Y-46710453D01*
X112647836Y-46710453D01*
X112707986Y-46708562D01*
X112711945Y-46708500D01*
X112739856Y-46708500D01*
X112743791Y-46708003D01*
X112743856Y-46707995D01*
X112755693Y-46707062D01*
X112787951Y-46706048D01*
X112791970Y-46705922D01*
X112799889Y-46705673D01*
X112819343Y-46700021D01*
X112838700Y-46696013D01*
X112850930Y-46694468D01*
X112850931Y-46694468D01*
X112858797Y-46693474D01*
X112866168Y-46690555D01*
X112866170Y-46690555D01*
X112899912Y-46677196D01*
X112911142Y-46673351D01*
X112945983Y-46663229D01*
X112945984Y-46663229D01*
X112953593Y-46661018D01*
X112960412Y-46656985D01*
X112960417Y-46656983D01*
X112971028Y-46650707D01*
X112988776Y-46642012D01*
X113007617Y-46634552D01*
X113043387Y-46608564D01*
X113053307Y-46602048D01*
X113084535Y-46583580D01*
X113084538Y-46583578D01*
X113091362Y-46579542D01*
X113105683Y-46565221D01*
X113120717Y-46552380D01*
X113130694Y-46545131D01*
X113137107Y-46540472D01*
X113165298Y-46506395D01*
X113173288Y-46497616D01*
X114792253Y-44878652D01*
X114800539Y-44871112D01*
X114807018Y-44867000D01*
X114853644Y-44817348D01*
X114856398Y-44814507D01*
X114876135Y-44794770D01*
X114878615Y-44791573D01*
X114886320Y-44782551D01*
X114916586Y-44750321D01*
X114920405Y-44743375D01*
X114920407Y-44743372D01*
X114926348Y-44732566D01*
X114937199Y-44716047D01*
X114940820Y-44711379D01*
X114949614Y-44700041D01*
X114952759Y-44692772D01*
X114952762Y-44692768D01*
X114967174Y-44659463D01*
X114972391Y-44648813D01*
X114993695Y-44610060D01*
X114998733Y-44590437D01*
X115005137Y-44571734D01*
X115010033Y-44560420D01*
X115010033Y-44560419D01*
X115013181Y-44553145D01*
X115014420Y-44545322D01*
X115014423Y-44545312D01*
X115020099Y-44509476D01*
X115022505Y-44497856D01*
X115031528Y-44462711D01*
X115031528Y-44462710D01*
X115033500Y-44455030D01*
X115033500Y-44434776D01*
X115035051Y-44415065D01*
X115036980Y-44402886D01*
X115038220Y-44395057D01*
X115034059Y-44351038D01*
X115033500Y-44339181D01*
X115033500Y-44074847D01*
X115053502Y-44006726D01*
X115109762Y-43959079D01*
X115209972Y-43916025D01*
X115214262Y-43914182D01*
X115243248Y-43896245D01*
X115340838Y-43835855D01*
X115409290Y-43817018D01*
X115477060Y-43838180D01*
X115522631Y-43892621D01*
X115522928Y-43893365D01*
X115523700Y-43896245D01*
X115526022Y-43901226D01*
X115526023Y-43901227D01*
X115595951Y-44051189D01*
X115595954Y-44051194D01*
X115598277Y-44056176D01*
X115601434Y-44060684D01*
X115675855Y-44166968D01*
X115699493Y-44200727D01*
X115824273Y-44325507D01*
X115828781Y-44328664D01*
X115828784Y-44328666D01*
X115843801Y-44339181D01*
X115968824Y-44426723D01*
X115973806Y-44429046D01*
X115973811Y-44429049D01*
X116090409Y-44483419D01*
X116128755Y-44501300D01*
X116134063Y-44502722D01*
X116134065Y-44502723D01*
X116293892Y-44545548D01*
X116293893Y-44545548D01*
X116299207Y-44546972D01*
X116428712Y-44558302D01*
X116438626Y-44559568D01*
X116449556Y-44561407D01*
X116457656Y-44562770D01*
X116457658Y-44562770D01*
X116462448Y-44563576D01*
X116468724Y-44563653D01*
X116470140Y-44563670D01*
X116470143Y-44563670D01*
X116475000Y-44563729D01*
X116502624Y-44559773D01*
X116520486Y-44558500D01*
X119921750Y-44558500D01*
X119942655Y-44560246D01*
X119957656Y-44562770D01*
X119957659Y-44562770D01*
X119962448Y-44563576D01*
X119968525Y-44563650D01*
X119970135Y-44563670D01*
X119970139Y-44563670D01*
X119975000Y-44563729D01*
X119979814Y-44563040D01*
X119979824Y-44563039D01*
X119996280Y-44560682D01*
X120003149Y-44559889D01*
X120150793Y-44546972D01*
X120156107Y-44545548D01*
X120156108Y-44545548D01*
X120315935Y-44502723D01*
X120315937Y-44502722D01*
X120321245Y-44501300D01*
X120359591Y-44483419D01*
X120476189Y-44429049D01*
X120476194Y-44429046D01*
X120481176Y-44426723D01*
X120606199Y-44339181D01*
X120621216Y-44328666D01*
X120621219Y-44328664D01*
X120625727Y-44325507D01*
X120750507Y-44200727D01*
X120774146Y-44166968D01*
X120848566Y-44060684D01*
X120851723Y-44056176D01*
X120854046Y-44051194D01*
X120854049Y-44051189D01*
X120923977Y-43901227D01*
X120923978Y-43901226D01*
X120926300Y-43896245D01*
X120939322Y-43847648D01*
X120970548Y-43731108D01*
X120970548Y-43731107D01*
X120971972Y-43725793D01*
X120983302Y-43596288D01*
X120984569Y-43586368D01*
X120987770Y-43567344D01*
X120987770Y-43567342D01*
X120988576Y-43562552D01*
X120988696Y-43552672D01*
X121560054Y-43552672D01*
X121563796Y-43557671D01*
X121598693Y-43573944D01*
X121608985Y-43577690D01*
X121818082Y-43633717D01*
X121828875Y-43635620D01*
X122044525Y-43654487D01*
X122055475Y-43654487D01*
X122271125Y-43635620D01*
X122281918Y-43633717D01*
X122491015Y-43577690D01*
X122501307Y-43573944D01*
X122529580Y-43560760D01*
X122540163Y-43551441D01*
X122538356Y-43545462D01*
X122062812Y-43069918D01*
X122048868Y-43062304D01*
X122047035Y-43062435D01*
X122040420Y-43066686D01*
X121566814Y-43540292D01*
X121560054Y-43552672D01*
X120988696Y-43552672D01*
X120988729Y-43550000D01*
X120984773Y-43522376D01*
X120983500Y-43504514D01*
X120983500Y-42934500D01*
X121003502Y-42866379D01*
X121057158Y-42819886D01*
X121109500Y-42808500D01*
X122069583Y-42808500D01*
X122072682Y-42809410D01*
G37*
%TD.AperFunction*%
%TD*%
M02*
